<svg width="640" height="864" viewBox="0 0 640 864" fill="none" xmlns="http://www.w3.org/2000/svg">
<mask id="mask0_15_120" style="mask-type:alpha" maskUnits="userSpaceOnUse" x="0" y="0" width="640" height="865">
<path d="M0 20.0001C0 8.9544 8.95431 0.00012207 20 0.00012207H640V864H20C8.95431 864 0 855.046 0 844V20.0001Z" fill="#F9F9F9"/>
</mask>
<g mask="url(#mask0_15_120)">
<path d="M277.498 127.219C273.075 153.23 252.277 175.713 226.683 182.132C199.014 189.074 169.751 178.325 141.46 181.957C118.1 184.954 97.1987 197.469 77.1353 209.798C57.0686 222.133 36.3383 234.839 13.0429 238.305C-10.2525 241.77 -37.0156 233.508 -48.0652 212.708C-61.0041 188.34 -47.8688 157.885 -29.4626 137.33C-11.0548 116.78 16.8966 102.731 26.8341 76.9994C44.6347 30.8945 69.8853 15.6963 94.6155 13.8622C137.927 10.6481 152.668 32.549 195.224 41.2265C213.39 44.929 232.198 48.3958 247.675 58.595C269.708 73.1091 281.919 101.203 277.496 127.214L277.498 127.219Z" fill="#EDC8AB"/>
<path d="M277.571 110.68C275.569 138.865 255.003 164.135 227.945 172.037C212.303 176.605 195.776 176.011 179.656 176.14C171.604 176.203 163.524 176.413 155.532 177.468C147.14 178.575 138.961 180.728 131.124 183.938C97.6878 197.647 73.4528 226.226 41.3088 242.176C27.4496 249.052 12.2599 253.216 -3.28907 251.738C-16.3882 250.493 -29.499 245.491 -38.5452 235.648C-60.1136 212.179 -47.8888 176.064 -31.4614 153.49C-15.5919 131.68 9.63198 115.734 18.6975 89.3535C19.9685 85.6542 20.884 81.8425 22.0682 78.1172C23.3977 73.9362 24.889 69.8058 26.5606 65.7475C29.3173 59.0605 32.5765 52.5582 36.5298 46.4927C42.7845 36.8943 50.8939 28.4444 60.8903 22.7232C70.6776 17.1234 81.7291 14.7761 92.8927 13.9986C105.724 13.1034 118.226 15.1084 130.495 18.767C142.609 22.3784 154.427 26.8862 166.774 29.7116C181.957 33.1843 197.571 33.4496 212.881 36.1386C227.93 38.7778 242.474 43.8702 254.029 54.1707C264.633 63.6214 272.228 76.3399 275.699 90.102C277.393 96.8193 278.014 103.769 277.577 110.683C277.48 112.224 279.878 112.064 279.972 110.541C281.801 81.4573 264.339 52.6827 237.737 40.844C222.953 34.2643 206.655 32.5129 190.72 30.9322C182.819 30.1473 174.999 29.1287 167.246 27.3585C160.669 25.8552 154.207 23.9231 147.79 21.8425C136.054 18.0354 124.386 13.8214 112.09 12.1915C99.183 10.4807 85.4209 11.2089 72.9233 14.9782C62.9072 17.9964 53.8503 23.4864 46.3275 30.735C36.5441 40.1671 29.553 52.2087 24.4034 64.691C22.7727 68.6408 21.3223 72.6627 20.007 76.7219C18.6918 80.7812 17.6866 85.1299 16.2167 89.2251C13.8785 95.7362 10.3647 101.769 6.27314 107.331C-2.15271 118.771 -12.7143 128.384 -22.3162 138.79C-32.5068 149.835 -41.1802 162.116 -46.6856 176.183C-52.0583 189.904 -54.6292 205.447 -50.2429 219.804C-46.1921 233.063 -36.3031 243.419 -23.7214 248.991C-11.1396 254.563 3.22111 255.69 16.6336 253.233C52.6973 246.63 79.027 217.977 108.576 198.755C116.436 193.639 124.666 189.038 133.407 185.608C141.603 182.392 150.129 180.405 158.88 179.487C175.335 177.763 191.916 179.168 208.391 177.844C223.722 176.609 238.57 172.522 250.986 163.156C262.087 154.782 270.808 143.197 275.687 130.167C278.057 123.846 279.489 117.271 279.967 110.542C280.076 109.003 277.677 109.164 277.572 110.685L277.571 110.68Z" fill="#2A2A2A"/>
<path d="M768.832 643.028C768.799 703.24 726.811 759.139 685.849 812.269C661.203 844.255 634.344 877.874 588.989 896.023C518.5 924.249 429.84 906.021 353.071 887.219C304.251 875.251 252.535 861.853 221.593 833.109C191.27 804.929 186.991 767.324 189.676 732.231C193.873 677.424 212.841 622.368 253.869 575.408C294.913 528.448 359.399 490.123 435.826 475.521C471.144 468.777 520.843 469.182 573.73 477.255C684.873 494.222 766.554 560.896 768.75 639.651C768.783 640.776 768.799 641.902 768.799 643.028H768.832Z" fill="#EDC8AB"/>
<path d="M788.874 619.419C793.25 670.33 768.099 719.396 739.142 765.377C725.819 786.543 712.414 807.89 696.667 828.268C682.042 847.205 664.359 865.444 639.924 879C588.745 907.394 519.671 905.649 458.797 897.149C427.09 892.713 395.758 886.622 364.849 880.035C335.144 873.708 305.406 866.131 279.865 853.622C254.276 841.092 235.99 823.539 225.644 803.127C215.005 782.141 211.914 759.691 211.524 737.568C210.645 688.817 221.057 639.279 248.663 594.188C273.114 554.242 311.767 518.034 362.604 492.33C386.648 480.171 413.588 470.038 442.122 463.947C473.096 457.338 506.462 456.471 538.607 457.867C569.907 459.218 600.946 462.844 630.277 470.725C655.135 477.401 678.544 486.892 699.107 498.624C740.769 522.402 770.751 555.244 783.001 591.688C786.075 600.819 787.995 610.085 788.857 619.441C789.167 622.807 796.78 622.83 796.471 619.441C792.892 580.553 770.637 543.411 733.351 514.206C696.52 485.338 646.155 465.197 591.706 457.327C557.071 452.317 520.469 450.74 485.248 453.026C470.005 454.017 454.779 455.762 440.121 458.88C425.48 461.999 411.229 466.266 397.613 471.13C341.96 491.024 296.312 523.235 264.687 560.423C228.345 603.15 210.515 652.418 205.456 701.596C203.015 725.296 202.82 749.423 207.619 772.988C212.109 795.032 221.903 817.155 241.424 835.136C260.588 852.789 287.609 864.915 316.598 873.573C346.239 882.422 377.636 888.412 408.724 894.244C439.812 900.076 473.975 905.48 507.438 907.338C540.901 909.196 572.119 907.664 602.199 899.772C632.278 891.88 657.103 877.784 676.608 860.153C696.179 842.454 710.25 822.211 723.623 802.046C754.369 755.683 785.994 708.081 794.795 656.899C796.926 644.469 797.561 631.938 796.487 619.441C796.194 616.075 788.597 616.052 788.874 619.441V619.419Z" fill="#2A2A2A"/>
<path d="M974.448 699.654C933.215 770.952 856.572 818.16 777.778 859.59C724.718 887.476 667.342 914.052 596.649 913.256C525.953 912.425 438.524 876.4 399.359 816.281C363.486 761.206 377.779 703.663 408.251 662.785C438.688 621.886 483.576 590.902 510.684 547.903C537.495 505.3 545.609 452.987 561.176 404.54C561.321 404.089 561.466 403.638 561.611 403.187C596.79 295.052 767.821 285.035 890.474 384.688C913.136 403.102 932.884 422.571 947.723 441.557C1015.24 527.892 1015.68 628.356 974.448 699.654Z" fill="#85544D"/>
<path d="M973.592 721.064C935.514 769.606 878.554 803.568 817.424 831.055C787.442 844.528 756.46 856.938 724.714 868.193C695.309 878.63 664.646 887.691 631.284 892.003C599.318 896.133 564.682 895.982 529.127 887.638C496.171 879.904 462.596 865.655 433.579 845.629C404.561 825.603 382.577 800.662 371.554 773.349C360.36 745.614 361.883 718.416 370.282 695.203C390.454 639.419 446.873 608.628 492.074 570.712C504.326 560.434 515.822 549.508 525.721 537.434C536.235 524.614 544.911 510.586 552.528 495.995C567.916 466.547 579.059 434.906 593.52 404.987C613.331 363.964 656.362 337.514 712.482 333.121C766.981 328.861 829.576 345.64 882.643 379.681C914.46 400.091 942.092 426.511 964.104 454.157C985.059 480.481 999.795 509.03 1008.01 537.216C1024.28 593.093 1016.44 646.649 993.36 690.499C987.707 701.25 981.085 711.441 973.609 721.074C971.077 724.343 978.976 728.871 981.495 725.627C1013.07 684.996 1029.69 633.239 1023.99 576.949C1021.2 549.432 1012.74 520.715 997.909 492.809C981.14 461.271 956.014 431.309 926.466 404.933C878.067 361.728 814.413 333.046 753.538 326.706C693.884 320.488 639.84 335.622 607.581 368.972C587.232 390 577.592 417.76 566.373 444.14C552.978 475.647 539.163 507.283 517.108 533.823C477.145 581.875 411.324 609.62 376.989 661.861C363.106 682.992 354.22 707.689 355.201 735.102C356.157 762.159 368.196 791.387 390.978 816.902C437.914 869.469 515.388 898.694 580.061 901.492C654.228 904.699 716.264 881.153 774.838 857.892C839.672 832.138 902.752 802.471 950.402 759.035C961.787 748.661 972.173 737.5 981.502 725.615C984.052 722.356 976.152 717.828 973.616 721.062L973.592 721.064Z" fill="#2A2A2A"/>
<path d="M346.292 478.23C310.516 490.08 261.002 464.039 223.411 432.685C185.821 401.33 152.71 363.152 111.518 338.176C86.0208 322.708 58.6957 313.14 32.9326 298.373C7.1752 283.599 -18.6526 261.037 -26.8318 234.919C-35.9771 205.776 -19.4688 181.291 5.0155 172.762C29.5083 164.241 60.1925 168.414 89.9435 174.359C119.695 180.304 150.173 188.008 178.045 186.339C214.214 184.153 242.532 166.455 272.67 152.907C276.523 151.172 280.472 149.502 284.506 147.946C316.541 135.567 359.637 144.895 394.881 172.949C395.825 173.701 396.764 174.459 397.691 175.23C416.806 191.081 434.012 211.893 443.137 232.781C448.79 245.721 451.364 258.693 449.385 270.551C445.316 294.986 423.622 308.233 411.254 327.756C396.552 350.974 395.366 382.476 390.191 411.356C385.025 440.244 373.779 469.132 346.295 478.244L346.292 478.23Z" fill="#C4DEE1"/>
<path d="M364.82 468.813C335.165 482.76 292.779 466.677 258.475 445.308C236.781 431.791 216.775 415.01 196.713 398.769C175.588 381.667 154.045 364.558 130.733 351.468C107.319 338.319 82.9997 330.802 58.9854 321.22C37.0456 312.46 14.7483 301.074 -3.22693 283.14C-11.6099 274.773 -18.5644 265.122 -22.7176 254.899C-26.3256 246.018 -27.4945 237.098 -26.6713 228.935C-24.9971 212.304 -15.408 198.879 -2.16405 191.012C13.6578 181.617 34.5267 179.465 55.3843 180.033C77.4686 180.634 100.289 184.321 122.689 186.222C145.122 188.121 166.935 187.904 186.316 182.011C206.075 175.998 222.906 165.64 239.267 154.955C247.511 149.578 255.665 144.075 264.148 138.986C271.771 134.405 279.593 130.156 288.708 127.752C304.723 123.527 323.297 124.015 342.104 129.562C362.57 135.595 382.224 147.345 399.439 162.682C418.042 179.246 434.692 200.527 440.863 222.393C443.916 233.199 444.097 243.591 441.558 252.821C439.025 262.078 434.303 270.057 429.245 277.648C424.113 285.354 418.6 292.79 414.182 301.036C409.719 309.366 406.777 318.624 404.872 328.412C397.089 368.414 406.824 417.252 385.257 450.443C380.188 458.252 373.409 464.618 364.789 468.796C362.392 469.954 365.595 474.324 367.986 473.172C386.464 464.222 396.165 445.86 400.853 425.702C405.611 405.21 405.325 382.767 406.432 360.861C407.516 339.253 410.397 318.393 420.287 301.195C429.739 284.767 443.459 270.966 447.29 250.852C455.007 210.357 412.96 160.938 371.655 137.645C353.071 127.16 333.13 121.154 314.53 120.3C305.306 119.876 296.403 120.643 288.147 122.641C278.741 124.916 270.609 128.904 262.77 133.514C245.349 143.763 229.408 155.824 211.53 165.507C202.565 170.369 193.113 174.683 182.891 177.677C172.97 180.583 162.365 182.145 151.283 182.531C107.387 184.048 58.2827 168.938 16.9985 178.196C-1.02968 182.235 -15.9894 191.134 -24.7235 206.06C-32.5267 219.37 -34.579 237.167 -27.1119 255.546C-18.346 277.118 1.49776 295.104 21.9065 307.693C44.7435 321.78 69.1455 329.397 92.9176 338.608C105.169 343.355 117.33 348.611 129.197 355.269C141.063 361.927 153.006 370.009 164.359 378.426C186.881 395.136 208.097 413.766 230.489 430.687C264.979 456.753 307.003 480.273 344.541 478.683C353.07 478.324 361.008 476.432 367.995 473.146C370.403 472.009 367.2 467.639 364.797 468.77L364.82 468.813Z" fill="#2A2A2A"/>
<path d="M84.6377 492.453C89.3853 512.384 80.482 533.67 66.2829 548.439C52.0837 563.207 33.239 572.533 14.4192 580.627C-16.4013 593.875 -51.51 604.655 -82.9296 592.899C-110.793 582.481 -129.754 556.268 -142.06 529.186C-160.027 489.661 -166.986 442.603 -149.018 403.082C-132.839 367.502 -92.068 324.302 -37.3147 347.621C-7.53266 360.306 -7.74365 396.605 7.42148 414.795C31.2548 443.356 76.0232 456.274 84.6399 492.459L84.6377 492.453Z" fill="#85544D"/>
<path d="M81.9916 505.628C84.2278 518.334 81.1296 531.208 74.9149 542.368C68.0438 554.722 57.5822 564.435 45.7471 571.971C32.5847 580.348 17.9422 586.14 3.29917 591.368C-9.55123 595.955 -22.693 599.961 -36.1581 602.273C-49.2689 604.524 -62.7846 605.206 -75.9222 602.769C-89.0224 600.34 -101.206 594.682 -111.541 586.277C-121.935 577.823 -130.285 567.126 -137.071 555.628C-143.939 543.993 -149.263 531.46 -153.473 518.633C-157.699 505.761 -160.728 492.49 -162.216 479.017C-163.691 465.72 -163.677 452.227 -161.671 438.989C-159.677 425.859 -155.722 413.05 -149.567 401.257C-144.66 391.856 -138.552 383.075 -131.508 375.15C-123.988 366.693 -115.313 359.203 -105.518 353.48C-95.6078 347.689 -84.5046 343.896 -73.0193 343.07C-59.9323 342.133 -46.9436 345.143 -35.1408 350.746C-29.35 353.498 -24.1539 357.222 -19.9759 362.118C-16.0801 366.681 -13.0918 371.934 -10.6802 377.408C-5.95268 388.16 -3.37547 399.684 1.13704 410.517C3.2404 415.563 5.84812 420.239 9.25674 424.52C13.2009 429.483 17.6592 434.025 22.3426 438.294C31.8167 446.942 42.206 454.501 52.0282 462.75C61.2528 470.497 70.2204 478.987 76.1753 489.591C78.9693 494.564 80.9819 500.009 82.0102 505.622C82.1635 506.465 82.7676 507.145 83.6868 507.091C84.4588 507.052 85.313 506.249 85.1556 505.414C82.9077 493.115 76.4671 482.534 68.0695 473.443C59.672 464.353 49.058 456.226 39.0623 448.239C28.9597 440.163 18.8061 431.821 10.8985 421.497C3.93377 412.411 1.01157 401.034 -2.51101 390.33C-6.33299 378.723 -10.8645 366.993 -19.4579 358.019C-24.1951 353.074 -29.9473 349.55 -36.174 346.802C-42.5323 343.996 -49.2249 341.889 -56.0824 340.75C-68.2266 338.733 -80.7051 339.862 -92.3243 343.911C-103.944 347.959 -113.54 354.093 -122.388 361.746C-130.975 369.17 -138.491 377.8 -144.824 387.215C-151.675 397.401 -157.061 408.427 -160.652 420.179C-164.611 433.156 -166.359 446.736 -166.397 460.279C-166.437 474.135 -164.651 487.949 -161.54 501.436C-158.435 514.904 -153.989 528.109 -148.291 540.699C-142.588 553.302 -135.552 565.421 -126.527 575.941C-117.723 586.204 -107.025 594.913 -94.5705 600.353C-82.0675 605.81 -68.3911 607.817 -54.8163 607.385C-40.9633 606.954 -27.249 604.118 -13.964 600.285C0.388843 596.143 14.6282 591.013 28.2363 584.844C42.3917 578.429 56.1383 570.294 66.7927 558.811C75.7332 549.179 82.5353 537.128 84.9656 524.131C86.1191 517.957 86.2343 511.593 85.1451 505.404C84.7997 503.425 81.6478 503.614 81.9976 505.605L81.9916 505.628Z" fill="#2A2A2A"/>
<path d="M818.082 3.38193C834.813 26.8405 830.301 63.0067 812.626 85.7537C798.23 104.272 773.813 112.873 759.456 131.425C746.999 147.538 743.898 168.746 736.768 187.83C718.575 236.567 671.133 272.213 619.587 279.228C568.034 286.236 514.218 265.662 478.1 228.218C441.989 190.767 414.594 136.746 425.123 85.7974C467.788 -120.611 737.47 -109.68 818.082 3.38193Z" fill="#85544D"/>
<path d="M826.384 25.5889C837.182 43.1324 836.376 65.7725 829.052 84.4518C825.221 94.2146 819.503 103.428 811.849 110.66C802.581 119.42 791.237 125.501 780.522 132.259C770.119 138.818 760.272 146.272 753.255 156.537C746.632 166.213 742.423 177.244 738.384 188.171C734.415 198.907 730.399 209.615 724.619 219.541C719.028 229.136 712.231 238.039 704.543 246.051C689.164 262.088 670.029 274.511 649.31 282.472C628.71 290.393 606.557 293.679 584.545 292.031C563.083 290.43 542.091 284.426 522.816 274.915C503.508 265.393 485.859 252.271 471.294 236.399C457.246 221.09 445.326 203.508 436.176 184.861C427.106 166.368 420.645 146.416 418.809 125.836C417.916 115.86 418.162 105.796 419.727 95.8971C421.373 85.5095 424.569 75.3751 428.143 65.5061C434.823 47.0534 443.847 29.4683 455.422 13.5997C465.98 -0.879785 478.558 -13.7933 492.777 -24.7001C506.493 -35.2114 521.6 -43.7783 537.566 -50.3731C553.487 -56.9456 570.163 -61.5673 587.15 -64.3771C604.217 -67.1975 621.58 -68.2578 638.865 -67.6376C656.114 -67.0152 673.309 -64.7943 690.146 -61.0309C706.582 -57.3647 722.684 -52.1882 738.141 -45.5152C752.929 -39.1255 767.138 -31.3519 780.279 -22.0248C792.658 -13.2363 804.112 -3.10348 813.895 8.51499C818.443 13.9136 822.62 19.6188 826.354 25.5991C827.978 28.1959 831.754 25.2977 830.142 22.7168C822.046 9.76457 811.885 -1.8053 800.517 -11.9907C788.518 -22.7398 775.142 -31.8633 761.046 -39.6218C746.159 -47.8088 730.405 -54.3938 714.205 -59.4836C697.43 -64.7515 680.16 -68.4739 662.703 -70.5589C645.128 -72.6672 627.331 -73.1358 609.673 -71.8514C591.966 -70.5667 574.389 -67.4588 557.363 -62.4206C540.376 -57.3988 524.018 -50.3432 508.788 -41.2934C493.35 -32.1222 479.248 -20.8142 466.926 -7.74449C453.723 6.24736 442.777 22.2656 434.13 39.438C429.429 48.7828 425.422 58.4788 422.065 68.3843C418.646 78.4742 415.692 88.777 414.401 99.3842C411.892 120.016 414.862 140.978 421.19 160.691C427.73 181.06 437.889 200.258 450.212 217.709C462.792 235.53 477.783 251.467 495.577 264.152C513.456 276.898 533.59 286.383 554.841 291.901C576.236 297.461 598.842 298.833 620.687 295.191C643.174 291.451 664.748 282.663 683.585 269.851C702.25 257.157 718.148 240.398 729.328 220.758C735.193 210.465 739.24 199.419 743.348 188.352C747.489 177.197 751.898 165.901 759.207 156.382C775.115 135.657 802.655 128.914 819.67 109.295C833.309 93.5645 840.486 71.7683 839.044 51.0138C838.343 40.9924 835.409 31.2744 830.136 22.7088C828.528 20.0999 824.752 22.9981 826.348 25.5911L826.384 25.5889Z" fill="#2A2A2A"/>
<path d="M278.692 760.106C258.36 777.924 228.125 776.051 201.814 782.299C182.885 786.795 165.067 795.919 145.737 798.164C126.413 800.404 103.681 793.055 96.9513 774.802C92.3865 762.431 96.4243 748.434 102.936 736.973C109.454 725.513 118.349 715.524 124.649 703.938C134.082 686.567 137.169 666.595 141.155 647.237C142.868 638.915 144.838 630.49 147.558 622.397C152.312 608.239 164.981 597.987 179.883 597.071C180.319 597.042 180.754 597.025 181.195 597.014C198.732 596.555 214.173 607.775 228.079 618.474C250.966 636.074 274.58 654.533 287.747 680.232C300.92 705.937 300.404 741.074 278.692 760.106Z" fill="#C4DEE1"/>
<path d="M288.554 741.183C277.226 756.171 258.778 762.798 241.762 768.96C232.764 772.219 223.732 775.467 215.17 779.785C205.353 784.739 196.166 790.822 186.573 796.177C177.713 801.125 168.366 805.61 158.291 807.351C149.861 808.806 140.92 808.496 132.787 805.719C124.746 802.969 117.902 797.5 114.231 789.745C109.798 780.375 110.508 769.31 113.062 759.533C115.983 748.371 121.47 738.107 125.663 727.408C127.839 721.853 129.591 716.177 130.754 710.318C131.923 704.436 132.581 698.462 132.936 692.477C133.652 680.478 133.142 668.462 133.188 656.458C133.211 650.301 133.389 644.144 133.939 638.01C134.374 633.113 135.141 628.348 137.129 623.812C140.674 615.719 147.1 609.07 155.199 605.484C165.359 600.988 176.905 602.088 187.277 605.204C198.274 608.508 208.589 613.841 218.87 618.875C228.28 623.48 237.621 628.268 246.579 633.714C263.709 644.138 280.032 657.426 289.534 675.444C298.142 691.767 301.664 711.99 294.958 729.608C293.383 733.743 291.2 737.637 288.554 741.183C287.552 742.529 289.814 743.834 290.805 742.5C302.506 726.818 303.257 705.868 297.489 687.735C294.54 678.468 289.958 669.74 283.984 662.071C277.461 653.692 269.511 646.498 260.989 640.204C252.409 633.875 243.188 628.468 233.772 623.497C223.955 618.314 213.95 613.388 203.835 608.823C193.165 604.007 181.722 599.705 169.838 599.866C159.758 599.998 150.055 603.657 142.873 610.817C139.649 614.03 136.991 617.844 135.101 621.979C133.074 626.406 132.037 631 131.533 635.822C130.221 648.365 130.617 660.977 130.697 673.565C130.777 686.154 130.577 698.29 128.085 710.381C125.645 722.219 120.411 732.987 115.777 744.064C111.476 754.338 107.948 765.192 108.492 776.475C108.962 786.194 112.776 795.61 120.428 801.858C134.511 813.359 155.256 812.58 171.396 806.36C181.974 802.282 191.647 796.326 201.344 790.541C206.218 787.637 211.115 784.768 216.172 782.202C220.588 779.963 225.13 778.004 229.734 776.2C247.352 769.31 266.59 764.401 281.504 752.191C284.986 749.338 288.096 746.091 290.805 742.5C291.819 741.16 289.551 739.86 288.554 741.183Z" fill="#2A2A2A"/>
<path d="M686.168 209.965C690.739 233.267 679.805 257.493 664.268 275.451C647.571 294.76 624.172 308.164 599.069 312.802C583.369 315.704 566.834 315.199 551.82 309.765C531.643 302.458 515.143 286.375 505.798 267.066C496.453 247.756 494.01 225.453 497.276 204.248C499.872 187.362 506.351 170.503 518.71 158.708C529.249 148.643 543.326 142.844 557.661 140.237C625.822 127.852 675.922 157.695 686.168 209.965Z" fill="#EDC8AB"/>
<path d="M682.472 208.714C688.252 227.665 683.208 248.057 673.952 265.02C664.101 283.078 649.101 298.115 631.281 308.34C613.46 318.564 590.879 324.755 569.631 322.085C550.3 319.656 532.782 309.499 519.982 294.958C505.574 278.591 497.984 257.093 496.628 235.494C495.396 215.916 498.573 194.399 510.685 178.373C517.049 169.949 525.653 163.558 535.109 158.995C544.152 154.629 554.01 152.019 563.821 150.049C580.212 146.759 597.296 145.931 613.79 148.981C628.008 151.611 641.773 157.16 653.281 166.009C664.408 174.559 673.123 185.882 678.768 198.715C680.197 201.97 681.416 205.313 682.47 208.709C682.959 210.283 685.426 209.584 684.935 208.004C682.724 200.856 679.71 193.936 675.853 187.516C671.995 181.095 667.665 175.667 662.539 170.646C657.39 165.608 651.576 161.237 645.33 157.65C639.084 154.063 631.963 151.063 624.834 148.972C617.21 146.737 609.327 145.417 601.407 144.851C592.79 144.239 584.122 144.543 575.551 145.581C566.05 146.734 556.633 148.731 547.472 151.49C537.044 154.633 527.062 159.491 518.628 166.439C510.69 172.982 504.625 181.415 500.668 190.893C496.795 200.173 494.797 210.115 494.11 220.12C493.325 231.503 494.201 243.033 496.77 254.157C499.339 265.282 503.678 276.074 509.836 285.702C515.111 293.947 521.74 301.362 529.394 307.465C537.048 313.567 545.596 318.328 554.848 321.38C565.146 324.778 576.155 325.821 586.944 324.978C597.885 324.12 608.67 321.424 618.819 317.262C628.691 313.214 637.986 307.829 646.383 301.245C654.826 294.625 662.328 286.89 668.634 278.203C674.583 270.01 679.444 260.991 682.825 251.438C686.134 242.084 687.967 232.076 687.418 222.139C687.154 217.352 686.336 212.589 684.935 208.004C684.456 206.427 681.99 207.126 682.47 208.709L682.472 208.714Z" fill="#2A2A2A"/>
<path d="M363.727 -103.87C371.019 -119.729 390.907 -126.356 408.216 -124.179C425.529 -121.992 441.12 -113.046 456.709 -105.196C493.492 -86.674 532.928 -73.4374 573.43 -66.0129C596.219 -61.8409 619.47 -59.4623 641.478 -52.2289C663.48 -44.9984 684.701 -32.1139 696.274 -12.0471C707.844 8.02604 707.231 36.101 690.597 52.2218C668.27 73.8624 631.464 65.6406 601.71 74.6645C584.764 79.8111 570.236 90.6236 555.242 100.052C540.248 109.481 523.535 117.901 505.833 117.284C494.343 116.886 474.92 110.383 462.136 92.6449C448.808 74.1602 427.196 63.6149 404.424 64.5379C400.458 64.6985 396.805 64.669 393.77 64.3614C376.411 62.6077 358.075 50.2273 357.953 32.7709C357.843 16.2193 373.476 3.80825 377.718 -12.1915C385.845 -42.8569 350.489 -75.0616 363.742 -103.886L363.727 -103.87Z" fill="#C4DEE1"/>
<path d="M357.075 -108.371C363.217 -122.417 378.908 -128.959 393.465 -129.387C411.919 -129.924 429.238 -120.773 445.426 -113.059C480.686 -96.258 518.037 -84.001 556.474 -76.9566C592.676 -70.3168 631.834 -70.405 664.461 -51.3399C678.481 -43.1459 691.078 -31.1774 697.154 -15.8572C702.527 -2.31554 703.102 13.6464 696.923 27.026C684.424 54.0767 651.632 54.7262 626.161 57.9434C619.393 58.7947 612.647 59.8668 606.041 61.5928C598.276 63.6228 590.938 66.8072 583.934 70.6876C568.954 78.989 555.772 90.1341 540.775 98.4053C527.644 105.651 512.404 110.969 497.285 107.997C490 106.564 482.944 103.648 476.715 99.6116C472.997 97.2014 469.54 94.3813 466.438 91.2158C463.224 87.9466 460.637 84.1465 457.536 80.7777C446.081 68.3762 430.229 60.354 413.422 58.6016C404.95 57.7172 396.444 59.3649 388.006 58.2083C381.461 57.3087 375.022 55.0289 369.46 51.4546C364.049 47.9795 359.275 43.1387 356.859 37.1031C354.019 30.0207 355.141 22.4731 358.12 15.6272C361.551 7.7395 366.745 0.77561 370.44 -6.97702C373.342 -13.0719 374.979 -19.4776 374.886 -26.2326C374.722 -38.0313 369.913 -49.2751 365.323 -59.9358C360.777 -70.4934 355.513 -81.385 354.678 -93.0206C354.301 -98.2719 355.048 -103.503 357.09 -108.371C357.923 -110.351 354.882 -111.742 354.046 -109.756C349.436 -98.7773 351.309 -87.0473 355.111 -76.133C359.137 -64.5803 364.999 -53.7414 368.669 -42.0556C370.432 -36.4456 371.653 -30.591 371.543 -24.6846C371.399 -17.0249 368.51 -10.0623 364.823 -3.45532C360.654 4.01298 355.619 11.1557 353.167 19.4356C351.108 26.3678 351.377 33.7999 354.64 40.3187C360.735 52.473 374.387 59.7137 387.471 61.51C395.922 62.6723 404.409 61.0161 412.887 61.9034C421.668 62.8227 430.192 65.4695 437.951 69.6807C445.801 73.941 452.791 79.8276 458.327 86.8297C463.954 93.9332 470.323 99.9533 478.258 104.426C484.64 108.026 491.73 110.586 498.984 111.688C506.26 112.792 513.668 112.028 520.77 110.225C537.267 106.031 551.495 96.11 565.31 86.5828C579.385 76.8798 593.691 67.6518 610.605 63.9043C624.367 60.8541 638.513 60.2838 652.407 58.057C665.6 55.9421 679.021 52.1624 689.161 43.0191C700.252 33.0159 705.19 18.3608 704.647 3.63854C704.061 -12.3814 697.094 -27.0871 686.135 -38.6199C659.985 -66.1368 620.353 -71.2531 584.693 -76.0131C564.919 -78.6544 545.33 -82.1031 526.002 -87.1192C506.449 -92.1918 487.259 -98.6416 468.594 -106.379C459.456 -110.167 450.512 -114.351 441.587 -118.608C432.86 -122.769 424.048 -126.809 414.753 -129.557C399.234 -134.14 382.091 -134.208 367.946 -125.466C361.87 -121.715 356.916 -116.327 354.043 -109.766C353.185 -107.797 356.22 -106.409 357.087 -108.381L357.075 -108.371Z" fill="#2A2A2A"/>
<path d="M630.595 544.393C628.243 572.095 608.14 595.849 584.871 611.065C559.862 627.429 529.209 634.99 499.458 632.133C480.85 630.349 462.399 624.459 447.245 613.512C426.884 598.794 413.484 575.38 409.177 550.636C404.87 525.892 409.297 500 419.796 477.179C428.151 459.005 440.87 442.111 458.577 432.81C473.68 424.871 491.393 422.872 508.368 424.55C589.084 432.539 635.88 482.255 630.595 544.393Z" fill="#C4DEE1"/>
<path d="M626.837 541.795C627.247 564.988 615.007 586.321 599.129 602.439C582.229 619.597 560.506 631.698 537.155 637.474C513.804 643.25 486.392 642.954 463.332 633.111C442.352 624.156 425.9 607.086 416.17 586.598C405.217 563.538 403.59 536.895 409.013 512.145C413.925 489.708 424.425 466.509 443.216 452.365C453.091 444.93 464.833 440.504 476.946 438.41C488.53 436.405 500.467 436.638 512.146 437.578C531.656 439.148 551.154 443.713 568.741 452.453C583.9 459.989 597.609 470.665 607.718 484.329C617.492 497.534 623.659 513.084 625.885 529.347C626.446 533.471 626.743 537.627 626.837 541.789C626.881 543.718 629.883 543.725 629.839 541.789C629.65 533.03 628.483 524.271 626.207 515.802C623.93 507.333 620.802 499.829 616.647 492.527C612.472 485.2 607.333 478.408 601.456 472.361C595.579 466.314 588.529 460.645 581.176 455.997C573.313 451.028 564.863 447.005 556.129 443.82C546.626 440.358 536.77 437.912 526.788 436.323C515.721 434.563 504.478 433.781 493.278 433.939C480.528 434.122 467.727 436.379 455.998 441.487C444.956 446.299 435.416 453.84 427.912 463.236C420.565 472.437 415.117 482.986 411.125 494.028C406.579 506.589 403.855 519.851 403.167 533.2C402.48 546.55 403.893 560.095 407.727 572.915C411.012 583.893 416.088 594.374 422.741 603.706C429.394 613.039 437.484 621.148 446.918 627.561C457.417 634.7 469.474 639.416 481.89 641.939C494.483 644.493 507.492 644.928 520.255 643.509C532.671 642.128 544.867 639.057 556.438 634.347C568.073 629.611 579.007 623.318 588.901 615.568C598.234 608.259 606.608 599.67 613.488 590.004C620.222 580.538 625.507 569.863 628.086 558.499C629.328 553.026 629.94 547.401 629.839 541.789C629.807 539.859 626.806 539.853 626.837 541.789V541.795Z" fill="#2A2A2A"/>
</g>
</svg>
