<svg width="39" height="39" viewBox="0 0 39 39" fill="none" xmlns="http://www.w3.org/2000/svg">
<path d="M39 19.9333C39 18.33 38.8672 17.16 38.5799 15.9467H19.8979V23.1832H30.8639C30.6429 24.9816 29.449 27.69 26.7959 29.5099L26.7587 29.7521L32.6656 34.2366L33.0748 34.2767C36.8333 30.8749 39 25.8699 39 19.9333Z" fill="#4285F4"/>
<path d="M19.8976 39C25.27 39 29.7802 37.2666 33.0745 34.2767L26.7956 29.5099C25.1153 30.6582 22.8602 31.4599 19.8976 31.4599C14.6358 31.4599 10.1698 28.0583 8.57782 23.3567L8.34447 23.3761L2.20239 28.0344L2.12207 28.2533C5.39415 34.6232 12.1153 39 19.8976 39Z" fill="#34A853"/>
<path d="M8.57815 23.3567C8.15809 22.1434 7.91499 20.8433 7.91499 19.5C7.91499 18.1566 8.15809 16.8566 8.55605 15.6433L8.54493 15.3849L2.32588 10.6517L2.1224 10.7466C0.773819 13.3899 0 16.3583 0 19.5C0 22.6417 0.773819 25.6099 2.1224 28.2533L8.57815 23.3567Z" fill="#FBBC05"/>
<path d="M19.8981 7.53995C23.6345 7.53995 26.1548 9.12161 27.592 10.4434L33.2076 5.07C29.7587 1.92834 25.2705 0 19.8981 0C12.1157 0 5.39464 4.37663 2.12256 10.7466L8.55621 15.6433C10.1703 10.9417 14.6363 7.53995 19.8981 7.53995Z" fill="#EB4335"/>
</svg>
