<svg width="19" height="19" viewBox="0 0 19 19" fill="none" xmlns="http://www.w3.org/2000/svg">
<path d="M18.4122 11.6667H18.4162H18.4083H18.4122ZM17.8541 11.216C17.9333 11.4916 18.1613 11.6649 18.4122 11.6667C18.4676 11.6667 18.5286 11.6493 18.5903 11.632C18.8991 11.528 19.0733 11.1553 18.9703 10.8173C18.9466 10.7393 16.5716 3 9.5004 3C2.4292 3 0.053405 10.7393 0.0296549 10.8173C-0.0732621 11.1553 0.100905 11.5193 0.409656 11.632C0.726324 11.7447 1.05883 11.554 1.16174 11.216L1.16412 11.2117C1.26941 10.8737 3.33092 4.3 9.50831 4.3C15.7166 4.3 17.767 10.93 17.8541 11.216ZM6.72955 11.6667C6.72955 10.8622 7.02148 10.0906 7.54111 9.52178C8.06075 8.95292 8.76552 8.63333 9.5004 8.63333C10.2353 8.63333 10.94 8.95292 11.4597 9.52178C11.9793 10.0906 12.2712 10.8622 12.2712 11.6667C12.2712 12.4712 11.9793 13.2427 11.4597 13.8116C10.94 14.3804 10.2353 14.7 9.5004 14.7C8.76552 14.7 8.06075 14.3804 7.54111 13.8116C7.02148 13.2427 6.72955 12.4712 6.72955 11.6667ZM9.5004 7.33333C8.45058 7.33333 7.44376 7.78988 6.70142 8.60254C5.95909 9.41519 5.54205 10.5174 5.54205 11.6667C5.54205 12.8159 5.95909 13.9181 6.70142 14.7308C7.44376 15.5435 8.45058 16 9.5004 16C10.5502 16 11.557 15.5435 12.2994 14.7308C13.0417 13.9181 13.4587 12.8159 13.4587 11.6667C13.4587 10.5174 13.0417 9.41519 12.2994 8.60254C11.557 7.78988 10.5502 7.33333 9.5004 7.33333Z" fill="#93C9CF"/>
<path d="M1 1.43591L17.5641 18" stroke="#93C9CF" stroke-linecap="round"/>
<path d="M1.43579 1L17.9999 17.5641" stroke="#F9F9F9" stroke-width="0.4" stroke-linecap="round"/>
</svg>
