<svg width="17" height="16" viewBox="0 0 17 16" fill="none" xmlns="http://www.w3.org/2000/svg">
<path d="M16.0773 1.27554e-05H0.9231C0.68944 1.27554e-05 0.500244 0.293309 0.500244 0.654856C0.500244 1.0164 0.68944 1.30786 0.9231 1.30786H16.0773C16.3108 1.30786 16.5001 1.0164 16.5001 0.654856C16.5001 0.293309 16.3108 1.27554e-05 16.0773 1.27554e-05Z" fill="#2A2A2A"/>
<path d="M12.9839 6.20459C13.2174 6.20459 13.4067 5.91244 13.4067 5.55134C13.4067 5.18842 13.2174 4.89628 12.9839 4.89628H4.01639C3.7829 4.89628 3.59351 5.18842 3.59351 5.55134C3.59351 5.91244 3.7829 6.20459 4.01639 6.20459H12.9839Z" fill="#2A2A2A"/>
<path d="M16.077 9.79484H0.922804C0.68926 9.79484 0.5 10.0875 0.5 10.4498C0.5 10.8102 0.68926 11.1029 0.922804 11.1029H16.077C16.3105 11.1029 16.4998 10.8102 16.4998 10.4498C16.4998 10.0875 16.3105 9.79484 16.077 9.79484Z" fill="#2A2A2A"/>
<path d="M12.9839 14.6912H4.01634C3.78287 14.6912 3.59351 14.9841 3.59351 15.3456C3.59351 15.7052 3.78287 16 4.01634 16H12.9839C13.2173 16 13.4067 15.7052 13.4067 15.3456C13.4067 14.9841 13.2173 14.6912 12.9839 14.6912Z" fill="#2A2A2A"/>
</svg>
