<svg width="18" height="33" viewBox="0 0 18 33" fill="none" xmlns="http://www.w3.org/2000/svg">
<path d="M17.5193 0.481942C17.2482 0.20915 16.8908 0.0409152 16.5093 0.00654753C16.1278 -0.0278201 15.7465 0.0738587 15.4317 0.293868L15.2027 0.481942L0.477936 15.33C0.20741 15.6034 0.0405752 15.9638 0.00649312 16.3485C-0.027589 16.7332 0.0732414 17.1177 0.291423 17.4351L0.477936 17.6661L15.2027 32.5142C15.4912 32.8065 15.8779 32.9792 16.2865 32.9982C16.695 33.0173 17.0959 32.8814 17.41 32.6172C17.7241 32.353 17.9287 31.9798 17.9835 31.5711C18.0382 31.1624 17.9392 30.7478 17.7059 30.4091L17.5193 30.1781L3.9497 16.4981L17.5193 2.81804C17.6717 2.66479 17.7926 2.48273 17.8751 2.2823C17.9575 2.08187 18 1.86699 18 1.64999C18 1.43299 17.9575 1.21811 17.8751 1.01768C17.7926 0.817249 17.6717 0.635193 17.5193 0.481942Z" fill="#2A2A2A"/>
</svg>
