<svg width="28" height="28" viewBox="0 0 28 28" fill="none" xmlns="http://www.w3.org/2000/svg">
<path d="M4.14298 27C4.03075 27 3.9174 26.9876 3.80627 26.9623C3.36843 26.8617 3.06173 26.5772 3.03395 26.2466L1.00201 1.84961C0.974233 1.51618 1.23593 1.20519 1.65932 1.06933C1.8049 1.02284 1.9588 1 2.11105 1C2.40275 1 2.69001 1.08296 2.90282 1.23925L26.6804 18.653C26.9999 18.8866 27.0888 19.2373 26.9065 19.5375C26.7287 19.8296 26.3287 20.0168 25.8892 20.0168C25.8764 20.0168 12.8052 19.695 12.8052 19.695L5.01032 26.7002C4.79529 26.8934 4.47414 27 4.14298 27Z" stroke="#2A2A2A" stroke-width="2"/>
</svg>
