<svg width="17" height="16" viewBox="0 0 17 16" fill="none" xmlns="http://www.w3.org/2000/svg">
<path d="M0.922856 1.30786H16.0771C16.3106 1.30786 16.5 1.0164 16.5 0.654856C16.5 0.293309 16.3106 1.27554e-05 16.0771 1.27554e-05H0.922856C0.689194 1.27554e-05 0.5 0.293309 0.5 0.654856C0.5 1.0164 0.689194 1.30786 0.922856 1.30786Z" fill="#2A2A2A"/>
<path d="M0.92289 6.20459H9.89023C10.1237 6.20459 10.3131 5.91244 10.3131 5.55134C10.3131 5.18842 10.1237 4.89628 9.89023 4.89628H0.92289C0.689281 4.89628 0.5 5.18842 0.5 5.55134C0.5 5.91244 0.689281 6.20459 0.92289 6.20459Z" fill="#2A2A2A"/>
<path d="M0.922807 11.1029H16.077C16.3106 11.1029 16.4999 10.8102 16.4999 10.4498C16.4999 10.0875 16.3106 9.79484 16.077 9.79484H0.922807C0.689146 9.79484 0.5 10.0875 0.5 10.4498C0.5 10.8102 0.689146 11.1029 0.922807 11.1029Z" fill="#2A2A2A"/>
<path d="M0.922832 16H9.89018C10.1237 16 10.313 15.7052 10.313 15.3456C10.313 14.9841 10.1237 14.6912 9.89018 14.6912H0.922832C0.689249 14.6912 0.5 14.9841 0.5 15.3456C0.5 15.7052 0.689249 16 0.922832 16Z" fill="#2A2A2A"/>
</svg>
