<svg width="20" height="18" viewBox="0 0 20 18" fill="none" xmlns="http://www.w3.org/2000/svg">
<path d="M1.38966 0C1.0211 0 0.667634 0.163485 0.407022 0.454489C0.14641 0.745494 0 1.14018 0 1.55172C0 1.96327 0.14641 2.35795 0.407022 2.64896C0.667634 2.93996 1.0211 3.10345 1.38966 3.10345H1.40078C1.76934 3.10345 2.1228 2.93996 2.38342 2.64896C2.64403 2.35795 2.79044 1.96327 2.79044 1.55172C2.79044 1.14018 2.64403 0.745494 2.38342 0.454489C2.1228 0.163485 1.76934 0 1.40078 0H1.38966ZM5.82546 0.62069C5.60432 0.62069 5.39224 0.71878 5.23588 0.893383C5.07951 1.06799 4.99166 1.3048 4.99166 1.55172C4.99166 1.79865 5.07951 2.03546 5.23588 2.21006C5.39224 2.38467 5.60432 2.48276 5.82546 2.48276H19.1662C19.3873 2.48276 19.5994 2.38467 19.7558 2.21006C19.9122 2.03546 20 1.79865 20 1.55172C20 1.3048 19.9122 1.06799 19.7558 0.893383C19.5994 0.71878 19.3873 0.62069 19.1662 0.62069H5.82546ZM5.82546 15.5172C5.60432 15.5172 5.39224 15.6153 5.23588 15.7899C5.07951 15.9645 4.99166 16.2013 4.99166 16.4483C4.99166 16.6952 5.07951 16.932 5.23588 17.1066C5.39224 17.2812 5.60432 17.3793 5.82546 17.3793H19.1662C19.3873 17.3793 19.5994 17.2812 19.7558 17.1066C19.9122 16.932 20 16.6952 20 16.4483C20 16.2013 19.9122 15.9645 19.7558 15.7899C19.5994 15.6153 19.3873 15.5172 19.1662 15.5172H5.82546ZM4.99166 9C4.99166 8.75307 5.07951 8.51626 5.23588 8.34166C5.39224 8.16706 5.60432 8.06897 5.82546 8.06897H19.1662C19.3873 8.06897 19.5994 8.16706 19.7558 8.34166C19.9122 8.51626 20 8.75307 20 9C20 9.24693 19.9122 9.48374 19.7558 9.65834C19.5994 9.83294 19.3873 9.93103 19.1662 9.93103H5.82546C5.60432 9.93103 5.39224 9.83294 5.23588 9.65834C5.07951 9.48374 4.99166 9.24693 4.99166 9ZM0 9C0 8.14345 0.622568 7.44828 1.38966 7.44828H1.40078C1.76934 7.44828 2.1228 7.61176 2.38342 7.90277C2.64403 8.19377 2.79044 8.58846 2.79044 9C2.79044 9.41154 2.64403 9.80623 2.38342 10.0972C2.1228 10.3882 1.76934 10.5517 1.40078 10.5517H1.38966C0.622568 10.5517 0 9.85655 0 9ZM1.38966 14.8966C1.0211 14.8966 0.667634 15.06 0.407022 15.351C0.14641 15.642 0 16.0367 0 16.4483C0 16.8598 0.14641 17.2545 0.407022 17.5455C0.667634 17.8365 1.0211 18 1.38966 18H1.40078C1.76934 18 2.1228 17.8365 2.38342 17.5455C2.64403 17.2545 2.79044 16.8598 2.79044 16.4483C2.79044 16.0367 2.64403 15.642 2.38342 15.351C2.1228 15.06 1.76934 14.8966 1.40078 14.8966H1.38966Z" fill="#2A2A2A"/>
</svg>
