<svg width="28" height="28" viewBox="0 0 28 28" fill="none" xmlns="http://www.w3.org/2000/svg">
<path d="M24.8396 3.97519C25.5181 4.54004 26.0632 5.2453 26.4365 6.04128C26.8097 6.83726 27.0021 7.70457 27 8.58211V20.9813C27.0018 21.7722 26.8457 22.5557 26.5407 23.2868C26.2357 24.0178 25.7878 24.6821 25.2227 25.2413C24.6576 25.8005 23.9865 26.2438 23.2478 26.5456C22.5092 26.8474 21.7176 27.0018 20.9185 26.9999H7.08149C6.28239 27.0018 5.4908 26.8474 4.75216 26.5456C4.01352 26.2438 3.34239 25.8005 2.77731 25.2413C2.21223 24.6821 1.76433 24.0178 1.45933 23.2868C1.15433 22.5557 0.998236 21.7722 1.00002 20.9813V8.58211C0.99833 7.79124 1.15449 7.00782 1.45954 6.27684C1.76458 5.54587 2.21249 4.88173 2.77757 4.32256C3.34264 3.76339 4.01373 3.32021 4.75232 3.01845C5.49092 2.7167 6.28245 2.56231 7.08149 2.56416H18.7567M6.33888 11.336H14.2719M6.33888 19.1353H20.6374" stroke="#2A2A2A" stroke-width="2" stroke-linecap="round" stroke-linejoin="round"/>
<path d="M15.4071 2.56345V2.50372C15.4071 1.67032 16.0851 0.999939 16.9278 0.999939H17.5185" stroke="#2A2A2A" stroke-width="2" stroke-linecap="round" stroke-linejoin="round"/>
<path d="M17.2365 0.999942H23.3166C24.1586 0.999942 24.8373 1.67102 24.8373 2.50443V14.0548L21.7916 12.3423L18.7559 14.0548V2.50373C18.7561 2.30611 18.717 2.11038 18.6407 1.92776C18.5644 1.74514 18.4524 1.57923 18.3112 1.43952C18.17 1.29982 18.0023 1.18908 17.8178 1.11364C17.6333 1.03821 17.4362 0.999572 17.2365 0.999942Z" stroke="#2A2A2A" stroke-width="2" stroke-linecap="round" stroke-linejoin="round"/>
</svg>
