<svg width="28" height="28" viewBox="0 0 28 28" fill="none" xmlns="http://www.w3.org/2000/svg">
<path d="M10.9922 8.39185V3.56062C10.9922 3.56062 11.0183 1.41861 13.5351 1.19674C16.8586 0.904452 16.5555 3.56062 16.5555 3.56062V8.58318V3.5114C16.5555 3.5114 16.8472 1.86174 19.258 1.88666C21.9599 1.91409 21.9599 5.7768 21.9599 5.7768V8.58379V5.12242C21.9599 4.09161 22.8605 3.26335 23.9697 3.26584C23.9885 3.26584 24.0072 3.26584 24.0267 3.26584C25.9339 3.26584 26.4114 5.18599 26.4114 5.18599C26.4114 5.18599 27.7358 15.5103 26.4114 19.6136C24.0267 27 20.2123 27 13.8543 27C7.49631 27 4.15805 21.3866 3.36339 19.4659C2.56872 17.5457 1.85786 16.1815 1.85786 16.1815C1.85786 16.1815 0.068711 9.85267 1.65804 8.22731C3.24737 6.60257 4.83737 8.46849 4.83737 8.46849C4.83737 8.46849 5.1123 11.4886 5.1123 13.4088V4.70674C5.1123 4.70674 4.95339 1.01353 7.97379 1.01353C7.97379 1.01353 10.7554 0.570404 10.7554 4.75596V8.38623L10.9922 8.39185Z" stroke="#2A2A2A" stroke-width="2" stroke-miterlimit="10"/>
</svg>
