<svg width="640" height="864" viewBox="0 0 640 864" fill="none" xmlns="http://www.w3.org/2000/svg">
<mask id="mask0_16_233" style="mask-type:alpha" maskUnits="userSpaceOnUse" x="0" y="0" width="640" height="865">
<path d="M0 20.0001C0 8.9544 8.95431 0.00012207 20 0.00012207H640V864H20C8.95431 864 0 855.046 0 844V20.0001Z" fill="#F9F9F9"/>
</mask>
<g mask="url(#mask0_16_233)">
<path d="M-26.5161 983.749C-50.2526 967.414 -58.3637 931.882 -49.52 904.466C-42.3138 882.145 -22.3023 865.722 -15.1435 843.382C-8.93856 823.984 -13.2668 802.992 -13.083 782.621C-12.6286 730.601 19.7876 680.896 65.8391 656.698C111.899 632.506 169.506 633.464 216.24 656.322C262.97 679.189 307.167 720.607 314.67 772.087C345.062 980.657 87.8611 1062.48 -26.5161 983.749Z" fill="#85544D"/>
<path d="M-41.9031 965.712C-58.0431 952.911 -65.0183 931.357 -64.5132 911.299C-64.2472 900.816 -62.0194 890.203 -57.2951 880.792C-51.5766 869.394 -42.9912 859.804 -35.2281 849.793C-27.6905 840.076 -20.9816 829.707 -17.8921 817.663C-14.9718 806.307 -14.7827 794.501 -14.7186 782.852C-14.654 771.406 -14.5365 759.97 -12.4946 748.667C-10.516 737.74 -7.16884 727.05 -2.67849 716.895C6.29921 696.57 20.0406 678.359 36.7952 663.8C53.4511 649.32 73.1508 638.666 94.402 632.697C115.12 626.873 136.901 625.348 158.264 627.704C179.664 630.06 200.733 636.365 219.843 646.308C238.275 655.899 255.482 668.353 270.45 682.754C285.291 697.038 298.177 713.584 306.931 732.299C311.178 741.371 314.383 750.914 316.293 760.752C318.293 771.077 318.75 781.694 318.762 792.19C318.785 811.815 316.309 831.424 310.85 850.292C305.872 867.506 298.459 883.939 288.82 899.046C279.519 913.61 268.246 926.821 255.492 938.472C242.773 950.086 228.677 960.125 213.671 968.568C198.594 977.047 182.637 983.973 166.18 989.293C149.755 994.599 132.835 998.384 115.726 1000.6C99.0258 1002.76 82.1238 1003.4 65.3175 1002.4C49.2359 1001.45 33.2271 998.996 17.6908 994.718C3.05452 990.685 -11.1718 985.073 -24.3343 977.494C-30.4521 973.973 -36.327 970.038 -41.8784 965.692C-44.2916 963.806 -46.8508 967.82 -44.4544 969.695C-32.4218 979.104 -18.9209 986.508 -4.75712 992.198C10.1912 998.203 25.8783 1002.21 41.7765 1004.69C58.5646 1007.3 75.6203 1008.11 92.5842 1007.36C110.15 1006.58 127.653 1004.18 144.772 1000.18C162.01 996.159 178.898 990.522 195.055 983.284C211.26 976.029 226.718 967.106 241 956.556C255.251 946.034 268.215 933.817 279.439 920.11C290.817 906.218 300.209 890.773 307.327 874.282C314.958 856.622 319.774 837.829 322.037 818.736C323.264 808.347 323.719 797.866 323.492 787.409C323.259 776.758 322.517 766.066 320.107 755.656C315.42 735.408 305.47 716.72 292.79 700.354C279.687 683.443 263.582 668.869 246.04 656.675C228.13 644.222 208.598 634.363 187.542 628.518C166.385 622.643 144.222 620.605 122.364 622.676C100.357 624.757 78.6414 631.188 59.3532 642.071C39.4957 653.266 22.2203 668.893 8.89105 687.369C-4.31618 705.673 -13.5352 726.854 -17.3359 749.131C-19.3329 760.808 -19.3646 772.573 -19.4456 784.377C-19.5278 796.275 -19.8145 808.399 -23.4325 819.841C-31.3069 844.753 -54.8882 860.496 -64.1797 884.745C-71.6267 904.189 -70.9285 927.125 -62.4853 946.14C-58.4036 955.319 -52.3277 963.451 -44.446 969.7C-42.0436 971.603 -39.4844 967.59 -41.87 965.698L-41.9031 965.712Z" fill="#2A2A2A"/>
<path d="M26.9153 744.535C14.6615 724.196 16.6639 697.692 25.1342 675.508C34.2333 651.657 51.6471 631.068 73.6571 618.136C87.4228 610.046 103.136 604.875 119.103 604.854C140.562 604.831 161.563 614.312 176.941 629.269C192.318 644.226 202.23 664.354 206.403 685.4C209.73 702.157 209.398 720.215 201.811 735.521C195.342 748.581 184.092 758.839 171.51 766.185C111.676 801.103 54.3963 790.164 26.9153 744.535Z" fill="#EDC8AB"/>
<path d="M30.8166 744.449C18.9115 728.612 16.6882 707.723 19.5947 688.619C22.6865 668.282 31.6491 649.027 44.9062 633.331C58.1634 617.635 77.2723 604.105 98.1555 599.358C117.154 595.039 137.087 598.603 154.083 607.898C173.215 618.361 187.69 635.974 196.341 655.811C204.185 673.791 208.548 695.099 202.637 714.299C199.532 724.389 193.629 733.335 186.299 740.853C179.291 748.044 170.917 753.864 162.369 759.066C148.087 767.756 132.313 774.368 115.768 777.135C101.507 779.519 86.6751 779.004 72.8361 774.617C59.4589 770.381 47.4012 762.716 37.7125 752.582C35.2579 750.011 32.9706 747.285 30.8198 744.454C29.8224 743.141 27.743 744.641 28.7436 745.958C33.2633 751.921 38.4591 757.395 44.2772 762.112C50.0954 766.829 56.0189 770.453 62.5522 773.421C69.1113 776.398 76.0692 778.52 83.1645 779.758C90.2598 780.996 97.9768 781.385 105.391 780.915C113.32 780.412 121.181 778.961 128.818 776.787C137.125 774.42 145.169 771.174 152.87 767.271C161.406 762.943 169.575 757.85 177.242 752.129C185.97 745.613 193.693 737.638 199.247 728.227C204.473 719.367 207.293 709.369 207.776 699.11C208.247 689.065 206.729 679.038 203.958 669.401C200.808 658.434 196.048 647.896 189.834 638.318C183.62 628.74 175.856 620.079 166.78 613.132C159.007 607.185 150.244 602.479 140.966 599.357C131.688 596.236 122.028 594.68 112.29 594.972C101.451 595.295 90.7475 598.074 80.8953 602.551C70.9053 607.094 61.689 613.312 53.5718 620.689C45.6755 627.865 38.7788 636.1 33.1353 645.157C27.4609 654.262 23.0511 664.094 20.0909 674.412C17.2977 684.144 15.8088 694.281 15.8941 704.415C15.9786 714.336 17.6729 724.368 21.5828 733.521C23.4662 737.929 25.8616 742.126 28.7436 745.958C29.7323 747.277 31.8116 745.777 30.8198 744.454L30.8166 744.449Z" fill="#2A2A2A"/>
<path d="M437.149 929.383C435.712 946.779 419.283 959.8 402.271 963.665C385.252 967.523 367.544 964.439 350.21 962.385C309.314 957.538 267.728 958.565 227.126 965.419C204.282 969.281 181.617 974.986 158.461 975.703C135.313 976.422 110.967 971.559 93.2373 956.651C75.5078 941.736 66.4961 915.14 76.6241 894.307C90.2188 866.343 127.619 861.501 152.503 842.858C166.672 832.233 176.634 817.109 187.507 803.127C198.379 789.144 211.211 775.523 228.06 770.058C238.995 766.508 259.471 765.987 277.544 778.292C296.384 791.114 320.298 793.644 341.386 784.999C345.059 783.494 348.502 782.274 351.459 781.527C368.373 777.247 389.835 782.621 395.911 798.986C401.667 814.505 391.213 831.509 392.69 847.995C395.525 879.592 439.753 897.786 437.141 929.403L437.149 929.383Z" fill="#C4DEE1"/>
<path d="M444.939 931.342C443.963 946.642 431.449 958.149 417.913 963.523C400.752 970.33 381.35 967.644 363.5 965.922C324.622 962.173 285.332 963.408 246.8 969.914C210.506 976.037 173.733 989.493 136.556 982.717C120.581 979.804 104.654 972.857 93.7117 960.532C84.0371 949.64 78.0453 934.834 79.2837 920.149C81.7926 890.456 112.391 878.646 135.232 866.924C141.302 863.813 147.277 860.501 152.896 856.623C159.501 852.063 165.31 846.564 170.568 840.525C181.812 827.607 190.396 812.63 201.666 799.734C211.534 788.44 224.041 778.237 239.266 775.867C246.602 774.726 254.23 775.057 261.463 776.723C265.781 777.719 269.992 779.189 273.989 781.104C278.126 783.079 281.856 785.767 285.92 787.875C300.922 795.618 318.561 797.745 334.956 793.652C343.221 791.59 350.652 787.136 358.978 785.342C365.437 783.952 372.267 783.896 378.715 785.356C384.988 786.774 391.128 789.693 395.46 794.541C400.548 800.228 402.071 807.704 401.609 815.156C401.079 823.741 398.574 832.061 397.75 840.609C397.104 847.328 397.753 853.908 400.147 860.225C404.331 871.258 412.69 880.184 420.645 888.636C428.523 897.006 437.19 905.445 441.949 916.096C444.097 920.903 445.181 926.075 444.925 931.348C444.818 933.493 448.151 933.762 448.258 931.61C448.842 919.717 443.075 909.332 435.774 900.372C428.046 890.889 418.834 882.703 411.394 872.973C407.821 868.303 404.674 863.217 402.76 857.628C400.28 850.38 400.617 842.85 401.826 835.381C403.194 826.937 405.487 818.505 404.964 809.885C404.531 802.667 401.74 795.773 396.448 790.761C386.568 781.419 371.264 779.276 358.353 782.056C350.013 783.849 342.603 788.304 334.331 790.366C325.764 792.501 316.849 792.924 308.118 791.616C299.285 790.293 290.705 787.147 283.11 782.457C275.396 777.702 267.353 774.219 258.368 772.725C251.14 771.522 243.603 771.536 236.408 772.978C229.193 774.426 222.491 777.673 216.432 781.793C202.359 791.369 192.374 805.553 182.644 819.225C172.728 833.152 162.434 846.71 147.817 856.009C135.924 863.576 122.824 868.943 110.526 875.781C98.8481 882.274 87.5244 890.41 81.1167 902.466C74.1091 915.656 74.473 931.116 80.0104 944.768C86.0328 959.625 97.6034 971.067 111.842 978.164C145.817 995.095 184.814 986.369 219.955 978.665C239.442 974.394 259.031 970.946 278.911 969.059C299.02 967.149 319.259 966.657 339.444 967.556C349.327 967.995 359.162 968.872 369.004 969.826C378.627 970.756 388.289 971.544 397.963 970.952C414.115 969.96 430.251 964.169 440.56 951.122C444.989 945.522 447.805 938.766 448.264 931.618C448.398 929.475 445.072 929.206 444.931 931.355L444.939 931.342Z" fill="#2A2A2A"/>
<path d="M711.651 353.028C711.61 413.24 658.918 469.139 607.512 522.269C576.583 554.255 542.878 587.874 485.96 606.023C397.501 634.248 286.238 616.021 189.899 597.219C128.632 585.251 63.7323 571.853 24.9025 543.109C-13.1515 514.929 -18.5207 477.324 -15.1522 442.231C-9.88503 387.424 13.9191 332.368 65.4063 285.408C116.914 238.448 197.84 200.123 293.751 185.521C338.072 178.777 400.441 179.182 466.811 187.255C606.288 204.222 708.792 270.896 711.548 349.65C711.589 350.776 711.61 351.902 711.61 353.028H711.651Z" fill="#EDC8AB"/>
<path d="M736.802 329.419C742.294 380.33 710.732 429.396 674.392 475.377C657.672 496.543 640.85 517.89 621.088 538.268C602.735 557.205 580.544 575.444 549.88 589C485.654 617.394 398.971 615.649 322.577 607.149C282.788 602.713 243.468 596.622 204.679 590.035C167.401 583.708 130.082 576.131 98.0299 563.622C65.9167 551.092 42.9699 533.539 29.9858 513.127C16.6342 492.141 12.7555 469.691 12.2655 447.568C11.1631 398.817 24.2287 349.279 58.8734 304.188C89.5575 264.242 138.064 228.034 201.862 202.33C232.035 190.171 265.843 180.038 301.651 173.947C340.522 167.338 382.393 166.471 422.734 167.867C462.013 169.218 500.965 172.844 537.774 180.725C568.968 187.401 598.346 196.892 624.151 208.624C676.434 232.402 714.059 265.244 729.432 301.688C733.29 310.819 735.7 320.085 736.781 329.441C737.169 332.807 746.724 332.83 746.336 329.441C741.844 290.553 713.917 253.411 667.125 224.206C620.905 195.338 557.699 175.197 489.369 167.327C445.905 162.317 399.971 160.74 355.772 163.026C336.643 164.017 317.534 165.762 299.14 168.88C280.767 171.999 262.883 176.266 245.795 181.13C175.955 201.024 118.67 233.235 78.9823 270.423C33.3747 313.15 10.9998 362.418 4.65067 411.596C1.58838 435.296 1.34331 459.423 7.3658 482.988C13.0004 505.032 25.2904 527.155 49.7887 545.136C73.8378 562.789 107.747 574.915 144.127 583.573C181.324 592.422 220.725 598.412 259.739 604.244C298.752 610.076 341.624 615.48 383.619 617.338C425.613 619.196 464.789 617.664 502.537 609.772C540.285 601.88 571.439 587.784 595.916 570.153C620.476 552.454 638.135 532.211 654.916 512.046C693.501 465.683 733.188 418.081 744.233 366.899C746.907 354.469 747.704 341.938 746.356 329.441C745.989 326.075 736.455 326.052 736.802 329.441V329.419Z" fill="#2A2A2A"/>
<path d="M749.924 539.486C732.84 569.026 701.085 588.586 668.439 605.751C646.455 617.305 622.682 628.317 593.393 627.986C564.101 627.642 527.878 612.716 511.651 587.808C496.788 564.989 502.709 541.147 515.335 524.21C527.946 507.265 546.544 494.428 557.776 476.612C568.884 458.96 572.246 437.286 578.695 417.213C578.755 417.026 578.816 416.84 578.876 416.653C593.451 371.85 664.313 367.699 715.132 408.988C724.521 416.617 732.703 424.684 738.851 432.55C766.823 468.321 767.008 509.946 749.924 539.486Z" fill="#85544D"/>
<path d="M749.569 548.357C733.793 568.469 710.193 582.54 684.865 593.929C672.443 599.511 659.606 604.653 646.453 609.316C634.27 613.64 621.566 617.395 607.743 619.181C594.499 620.892 580.148 620.83 565.417 617.373C551.762 614.168 537.851 608.264 525.829 599.967C513.806 591.67 504.698 581.336 500.131 570.02C495.493 558.528 496.124 547.26 499.603 537.642C507.961 514.529 531.337 501.772 550.065 486.062C555.141 481.804 559.904 477.277 564.006 472.275C568.362 466.963 571.956 461.151 575.112 455.105C581.488 442.904 586.105 429.795 592.096 417.398C600.305 400.402 618.133 389.443 641.385 387.623C663.965 385.858 689.9 392.809 711.887 406.913C725.069 415.37 736.518 426.316 745.638 437.771C754.321 448.677 760.426 460.506 763.829 472.184C770.571 495.335 767.323 517.525 757.76 535.693C755.418 540.147 752.674 544.37 749.577 548.361C748.527 549.715 751.8 551.592 752.844 550.247C765.926 533.413 772.814 511.969 770.45 488.646C769.294 477.246 765.789 465.348 759.644 453.785C752.697 440.718 742.287 428.304 730.044 417.376C709.991 399.475 683.618 387.591 658.396 384.965C633.679 382.388 611.288 388.659 597.922 402.477C589.491 411.189 585.497 422.691 580.849 433.62C575.299 446.675 569.575 459.782 560.437 470.778C543.879 490.687 516.608 502.183 502.382 523.828C496.63 532.583 492.948 542.815 493.355 554.173C493.751 565.384 498.739 577.493 508.178 588.065C527.625 609.845 559.725 621.953 586.52 623.112C617.249 624.441 642.952 614.685 667.221 605.048C694.083 594.377 720.219 582.086 739.961 564.089C744.678 559.791 748.982 555.167 752.847 550.242C753.903 548.892 750.63 547.016 749.58 548.356L749.569 548.357Z" fill="#2A2A2A"/>
<path d="M600.595 214.393C598.243 242.095 578.14 265.849 554.871 281.065C529.862 297.429 499.209 304.99 469.458 302.133C450.849 300.349 432.398 294.459 417.245 283.512C396.884 268.794 383.484 245.38 379.177 220.636C374.87 195.892 379.297 170 389.796 147.179C398.151 129.005 410.87 112.111 428.577 102.81C443.68 94.8712 461.393 92.8722 478.368 94.5496C559.084 102.539 605.88 152.255 600.595 214.393Z" fill="#C4DEE1"/>
<path d="M596.837 211.795C597.247 234.988 585.007 256.321 569.129 272.439C552.229 289.597 530.506 301.698 507.155 307.474C483.804 313.251 456.392 312.954 433.332 303.111C412.352 294.156 395.9 277.086 386.17 256.598C375.217 233.538 373.59 206.895 379.013 182.145C383.925 159.708 394.425 136.509 413.216 122.365C423.091 114.93 434.833 110.504 446.946 108.41C458.53 106.405 470.467 106.638 482.146 107.578C501.656 109.148 521.154 113.713 538.741 122.453C553.9 129.989 567.609 140.665 577.718 154.329C587.492 167.534 593.659 183.084 595.885 199.347C596.446 203.471 596.743 207.627 596.837 211.789C596.881 213.718 599.883 213.725 599.839 211.789C599.65 203.03 598.483 194.271 596.207 185.802C593.93 177.333 590.802 169.829 586.647 162.527C582.472 155.2 577.333 148.408 571.456 142.361C565.579 136.314 558.529 130.645 551.176 125.997C543.313 121.028 534.863 117.005 526.129 113.82C516.626 110.358 506.77 107.912 496.788 106.323C485.721 104.563 474.478 103.781 463.278 103.939C450.528 104.122 437.727 106.38 425.998 111.487C414.956 116.299 405.416 123.841 397.912 133.236C390.565 142.437 385.117 152.986 381.125 164.028C376.579 176.589 373.855 189.851 373.167 203.2C372.48 216.55 373.893 230.095 377.727 242.915C381.012 253.893 386.088 264.374 392.741 273.706C399.394 283.039 407.484 291.148 416.918 297.561C427.417 304.7 439.474 309.417 451.89 311.939C464.483 314.493 477.492 314.928 490.255 313.509C502.671 312.128 514.867 309.057 526.438 304.347C538.073 299.611 549.007 293.318 558.901 285.568C568.234 278.259 576.608 269.671 583.488 260.004C590.222 250.538 595.507 239.863 598.086 228.499C599.328 223.026 599.94 217.401 599.839 211.789C599.807 209.859 596.806 209.853 596.837 211.789V211.795Z" fill="#2A2A2A"/>
<path d="M84.6378 492.453C89.3855 512.384 80.4821 533.67 66.283 548.439C52.0838 563.207 33.2392 572.533 14.4193 580.627C-16.4012 593.875 -51.5098 604.655 -82.9295 592.899C-110.793 582.481 -129.754 556.268 -142.06 529.186C-160.027 489.661 -166.986 442.603 -149.018 403.082C-132.839 367.502 -92.0679 324.302 -37.3145 347.621C-7.53254 360.306 -7.74353 396.605 7.4216 414.795C31.2549 443.356 76.0233 456.274 84.64 492.459L84.6378 492.453Z" fill="#85544D"/>
<path d="M81.9916 505.628C84.2278 518.334 81.1296 531.208 74.9149 542.368C68.0438 554.722 57.5822 564.435 45.7471 571.971C32.5847 580.348 17.9422 586.14 3.29917 591.368C-9.55123 595.955 -22.693 599.961 -36.1581 602.273C-49.2689 604.524 -62.7846 605.206 -75.9222 602.769C-89.0224 600.34 -101.206 594.682 -111.541 586.277C-121.935 577.823 -130.285 567.126 -137.071 555.628C-143.939 543.993 -149.263 531.46 -153.473 518.633C-157.699 505.761 -160.728 492.49 -162.216 479.017C-163.691 465.72 -163.677 452.227 -161.671 438.989C-159.677 425.859 -155.722 413.05 -149.567 401.257C-144.66 391.856 -138.552 383.075 -131.508 375.15C-123.988 366.693 -115.313 359.203 -105.518 353.48C-95.6078 347.689 -84.5046 343.896 -73.0193 343.07C-59.9323 342.133 -46.9436 345.143 -35.1408 350.746C-29.35 353.498 -24.1539 357.222 -19.9759 362.118C-16.0801 366.681 -13.0918 371.934 -10.6802 377.408C-5.95268 388.16 -3.37547 399.684 1.13704 410.517C3.2404 415.563 5.84812 420.239 9.25674 424.52C13.2009 429.483 17.6592 434.025 22.3426 438.294C31.8167 446.942 42.206 454.501 52.0282 462.75C61.2528 470.497 70.2204 478.987 76.1753 489.591C78.9693 494.564 80.9819 500.009 82.0102 505.622C82.1635 506.465 82.7676 507.145 83.6868 507.091C84.4588 507.052 85.313 506.249 85.1556 505.414C82.9077 493.115 76.4671 482.534 68.0695 473.443C59.672 464.353 49.058 456.226 39.0623 448.239C28.9597 440.163 18.8061 431.821 10.8985 421.497C3.93377 412.411 1.01157 401.034 -2.51101 390.33C-6.33299 378.723 -10.8645 366.993 -19.4579 358.019C-24.1951 353.074 -29.9473 349.55 -36.174 346.802C-42.5323 343.996 -49.2249 341.889 -56.0824 340.75C-68.2266 338.733 -80.7051 339.862 -92.3243 343.911C-103.944 347.959 -113.54 354.093 -122.388 361.746C-130.975 369.17 -138.491 377.8 -144.824 387.215C-151.675 397.401 -157.061 408.427 -160.652 420.179C-164.611 433.156 -166.359 446.736 -166.397 460.279C-166.437 474.135 -164.651 487.949 -161.54 501.436C-158.435 514.904 -153.989 528.109 -148.291 540.699C-142.588 553.302 -135.552 565.421 -126.527 575.941C-117.723 586.204 -107.025 594.913 -94.5705 600.353C-82.0675 605.81 -68.3911 607.817 -54.8163 607.385C-40.9633 606.954 -27.249 604.118 -13.964 600.285C0.388843 596.143 14.6282 591.013 28.2363 584.844C42.3917 578.429 56.1383 570.294 66.7927 558.811C75.7332 549.179 82.5353 537.128 84.9656 524.131C86.1191 517.957 86.2343 511.593 85.1451 505.404C84.7997 503.425 81.6478 503.614 81.9976 505.605L81.9916 505.628Z" fill="#2A2A2A"/>
<path d="M142.595 282.87C106.819 294.721 57.3047 268.679 19.714 237.325C-17.8768 205.971 -50.987 167.792 -92.179 142.817C-117.677 127.349 -145.002 117.781 -170.765 103.013C-196.522 88.2393 -222.35 65.6775 -230.529 39.559C-239.675 10.4164 -223.166 -14.0689 -198.682 -22.5978C-174.189 -31.1188 -143.505 -26.9457 -113.754 -21.0006C-84.0029 -15.0556 -53.5242 -7.35137 -25.6521 -9.02082C10.5161 -11.2069 38.8343 -28.9041 68.9728 -42.4529C72.8252 -44.1879 76.7742 -45.8571 80.8087 -47.4139C112.844 -59.7929 155.939 -50.4645 191.183 -22.4103C192.127 -21.6584 193.066 -20.9003 193.993 -20.1298C213.109 -4.27891 230.315 16.5331 239.44 37.4217C245.092 50.361 247.667 63.3338 245.687 75.1917C241.619 99.6262 219.924 112.874 207.557 132.397C192.855 155.614 191.669 187.116 186.494 215.996C181.328 244.884 170.082 273.773 142.597 282.884L142.595 282.87Z" fill="#C4DEE1"/>
<path d="M161.122 273.454C131.467 287.4 89.0816 271.318 54.7775 249.949C33.0833 236.432 13.0773 219.65 -6.98426 203.41C-28.1097 186.307 -49.6524 169.198 -72.9643 156.109C-96.3785 142.96 -120.698 135.442 -144.712 125.861C-166.652 117.101 -188.949 105.715 -206.925 87.7807C-215.307 79.4135 -222.262 69.7623 -226.415 59.5397C-230.023 50.6586 -231.192 41.7383 -230.369 33.5751C-228.695 16.9443 -219.106 3.51955 -205.862 -4.34799C-190.04 -13.7425 -169.171 -15.8942 -148.313 -15.3263C-126.229 -14.7259 -103.408 -11.039 -81.0091 -9.13737C-58.5756 -7.23859 -36.7629 -7.4558 -17.3813 -13.3483C2.37759 -19.3612 19.2083 -29.7192 35.5698 -40.4049C43.813 -45.7816 51.9678 -51.2847 60.4501 -56.3739C68.073 -60.9541 75.8954 -65.2036 85.0109 -67.608C101.025 -71.8323 119.6 -71.344 138.406 -65.7973C158.872 -59.7645 178.527 -48.0146 195.741 -32.6777C214.344 -16.1135 230.995 5.16743 237.166 27.0337C240.218 37.84 240.399 48.2319 237.861 57.4614C235.327 66.7188 230.605 74.6974 225.547 82.2885C220.415 89.9942 214.902 97.4301 210.484 105.676C206.021 114.006 203.079 123.264 201.175 133.052C193.391 173.054 203.126 221.893 181.559 255.084C176.49 262.892 169.711 269.259 161.091 273.436C158.694 274.595 161.898 278.965 164.289 277.813C182.767 268.862 192.468 250.501 197.156 230.343C201.914 209.85 201.628 187.407 202.734 165.501C203.819 143.894 206.699 123.034 216.59 105.836C226.042 89.4079 239.762 75.6066 243.592 55.4926C251.31 14.9975 209.262 -34.4218 167.958 -57.715C149.373 -68.1993 129.433 -74.2054 110.832 -75.0591C101.608 -75.4839 92.7052 -74.7162 84.4493 -72.7183C75.0439 -70.4431 66.9113 -66.4552 59.0726 -61.8453C41.6511 -51.5967 25.71 -39.536 7.83289 -29.8529C-1.13257 -24.9905 -10.5848 -20.6767 -20.8064 -17.6825C-30.7273 -14.7765 -41.3325 -13.2145 -52.4143 -12.8289C-96.3103 -11.3115 -145.415 -26.4216 -186.699 -17.1638C-204.727 -13.1246 -219.687 -4.2251 -228.421 10.7C-236.224 24.0101 -238.277 41.8072 -230.809 60.1865C-222.044 81.7582 -202.2 99.7444 -181.791 112.334C-158.954 126.421 -134.552 134.037 -110.78 143.249C-98.5287 147.996 -86.3672 153.252 -74.5009 159.91C-62.6347 166.568 -50.6915 174.65 -39.3383 183.066C-16.8167 199.776 4.3999 218.407 26.7913 235.327C61.2815 261.394 103.305 284.914 140.843 283.324C149.372 282.964 157.311 281.073 164.297 277.786C166.706 276.65 163.502 272.28 161.099 273.41L161.122 273.454Z" fill="#2A2A2A"/>
<path d="M816.498 811.219C812.075 837.23 791.277 859.713 765.683 866.132C738.014 873.073 708.751 862.325 680.46 865.957C657.1 868.954 636.199 881.469 616.135 893.798C596.069 906.133 575.338 918.839 552.043 922.305C528.748 925.77 501.984 917.508 490.935 896.708C477.996 872.34 491.131 841.885 509.537 821.33C527.945 800.78 555.897 786.731 565.834 760.999C583.635 714.894 608.885 699.696 633.616 697.862C676.927 694.648 691.668 716.549 734.224 725.226C752.39 728.929 771.198 732.396 786.675 742.595C808.708 757.109 820.919 785.203 816.497 811.214L816.498 811.219Z" fill="#EDC8AB"/>
<path d="M816.571 794.68C814.569 822.865 794.003 848.135 766.945 856.037C751.303 860.605 734.776 860.011 718.656 860.14C710.604 860.203 702.524 860.413 694.532 861.468C686.14 862.575 677.961 864.728 670.124 867.938C636.688 881.647 612.453 910.226 580.309 926.176C566.45 933.052 551.26 937.216 535.711 935.738C522.612 934.493 509.501 929.491 500.455 919.648C478.886 896.179 491.111 860.064 507.539 837.49C523.408 815.68 548.632 799.734 557.697 773.353C558.968 769.654 559.884 765.842 561.068 762.117C562.398 757.936 563.889 753.806 565.561 749.747C568.317 743.06 571.577 736.558 575.53 730.493C581.785 720.894 589.894 712.444 599.89 706.723C609.678 701.123 620.729 698.776 631.893 697.999C644.724 697.103 657.226 699.108 669.495 702.767C681.609 706.378 693.427 710.886 705.774 713.712C720.957 717.184 736.571 717.45 751.881 720.139C766.93 722.778 781.474 727.87 793.029 738.171C803.633 747.621 811.228 760.34 814.699 774.102C816.393 780.819 817.014 787.769 816.577 794.683C816.48 796.224 818.878 796.064 818.972 794.541C820.801 765.457 803.339 736.683 776.737 724.844C761.953 718.264 745.655 716.513 729.72 714.932C721.819 714.147 713.999 713.129 706.246 711.358C699.669 709.855 693.207 707.923 686.79 705.842C675.054 702.035 663.386 697.821 651.09 696.191C638.183 694.481 624.421 695.209 611.923 698.978C601.907 701.996 592.85 707.486 585.327 714.735C575.544 724.167 568.553 736.209 563.403 748.691C561.773 752.641 560.322 756.663 559.007 760.722C557.692 764.781 556.687 769.13 555.217 773.225C552.879 779.736 549.365 785.769 545.273 791.331C536.847 802.771 526.286 812.384 516.684 822.79C506.493 833.835 497.82 846.116 492.314 860.183C486.942 873.904 484.371 889.447 488.757 903.804C492.808 917.063 502.697 927.419 515.279 932.991C527.86 938.563 542.221 939.69 555.634 937.233C591.697 930.63 618.027 901.977 647.576 882.755C655.436 877.639 663.666 873.038 672.407 869.608C680.603 866.392 689.129 864.405 697.88 863.487C714.335 861.763 730.916 863.168 747.391 861.844C762.722 860.609 777.57 856.522 789.986 847.156C801.087 838.782 809.808 827.197 814.687 814.167C817.057 807.846 818.489 801.271 818.967 794.542C819.076 793.003 816.677 793.164 816.572 794.685L816.571 794.68Z" fill="#2A2A2A"/>
<path d="M145.118 -48.7782C177.097 -60.6858 214.038 -55.5568 250.143 -48.014C274.452 -42.9307 299.796 -36.2905 322.175 -17.3913C344.546 1.51963 362.982 36.0896 359.64 65.629C356.578 92.689 336.834 107.307 316.316 112.332C295.803 117.373 273.288 115.435 253.286 122.025C233.482 128.568 217.092 143.144 199.341 154.519C199.176 154.625 199.01 154.731 198.845 154.837C159.084 180.112 101.791 138.205 88.8812 74.0134C86.4963 62.1523 85.3212 50.7229 85.5865 40.7427C86.7839 -4.65078 113.138 -36.8706 145.118 -48.7782Z" fill="#85544D"/>
<path d="M151.038 -55.3939C176.008 -60.8621 203.166 -56.6917 229.949 -49.3526C243.083 -45.7502 256.256 -41.5442 269.368 -36.7683C281.517 -32.3478 293.705 -27.1563 305.502 -19.7351C316.806 -12.6239 327.834 -3.4408 336.994 8.60269C345.485 19.7658 352.456 33.174 356.446 47.2263C360.437 61.2785 360.884 75.0462 357.202 86.6808C353.464 98.4956 345.804 106.785 336.999 111.987C315.84 124.492 289.691 119.451 265.248 119.645C258.622 119.698 252.067 120.158 245.72 121.405C238.979 122.728 232.507 124.923 226.225 127.576C213.541 132.928 201.635 140.099 189.124 145.846C171.974 153.729 151.248 150.832 132.156 137.435C113.618 124.422 98.042 102.552 90.0628 77.6786C85.2793 62.7654 83.4177 47.0356 83.6755 32.3958C83.9221 18.4577 86.743 5.44875 91.5522 -5.72383C101.089 -27.8709 117.72 -42.9162 136.66 -50.8408C141.302 -52.785 146.105 -54.295 151.035 -55.4017C152.706 -55.7782 151.376 -59.3086 149.716 -58.9362C128.911 -54.2804 109.948 -42.1264 96.9254 -22.6347C90.5594 -13.1064 85.6888 -1.69903 83.0675 11.1296C80.1081 25.6297 80.2343 41.8304 82.7198 58.0515C86.7902 84.6219 99.5655 110.575 117.346 128.656C134.767 146.377 156.028 155.794 175.132 153.646C187.18 152.293 197.582 145.965 208.124 140.495C220.714 133.96 233.472 127.494 247.519 124.831C272.963 120.016 301.312 128.51 326.062 120.872C336.071 117.782 345.424 112.234 352.34 103.215C359.171 94.3173 363.033 81.8029 362.482 67.6413C361.349 38.4649 344.3 8.69318 324.373 -9.2575C301.519 -29.8429 275.486 -38.6806 250.635 -46.6964C223.125 -55.5659 195.144 -62.723 168.462 -61.4108C162.088 -61.0985 155.826 -60.2715 149.711 -58.9342C148.036 -58.5654 149.366 -55.035 151.03 -55.3997L151.038 -55.3939Z" fill="#2A2A2A"/>
</g>
</svg>
