<svg width="26" height="26" viewBox="0 0 26 26" fill="none" xmlns="http://www.w3.org/2000/svg">
<path d="M3.1713 21.4671C3.2607 21.3775 3.36687 21.3065 3.48373 21.258C3.60059 21.2095 3.72587 21.1845 3.8524 21.1844C3.97892 21.1843 4.10423 21.2091 4.22116 21.2575C4.3381 21.3058 4.44436 21.3767 4.53389 21.4661C4.62343 21.5555 4.69447 21.6617 4.74297 21.7785C4.79148 21.8954 4.81649 22.0206 4.81658 22.1472C4.81667 22.2737 4.79183 22.399 4.7435 22.5159C4.69516 22.6328 4.62426 22.7391 4.53486 22.8286L1.64596 25.7173C1.4654 25.8981 1.2204 25.9998 0.964862 26C0.709326 26.0002 0.464184 25.8988 0.283365 25.7183C0.102546 25.5377 0.000861551 25.2928 0.00068096 25.0372C0.000500369 24.7817 0.101839 24.5366 0.282402 24.3558L3.1713 21.4671ZM12.8009 19.5413C12.9815 19.3604 13.2265 19.2588 13.482 19.2586C13.7376 19.2584 13.9827 19.3597 14.1635 19.5403C14.3444 19.7208 14.446 19.9658 14.4462 20.2213C14.4464 20.4769 14.3451 20.722 14.1645 20.9028L9.34198 25.7173C9.16036 25.8927 8.91711 25.9898 8.66463 25.9876C8.41214 25.9854 8.17062 25.8841 7.99208 25.7056C7.81353 25.5271 7.71226 25.2856 7.71007 25.0331C7.70787 24.7806 7.80493 24.5374 7.98035 24.3558L12.8009 19.5413ZM21.1556 11.5549C21.2764 11.5538 21.3945 11.5905 21.4933 11.6599C21.592 11.7294 21.6666 11.828 21.7065 11.942L22.1841 13.4172C22.3339 13.865 22.586 14.2718 22.9202 14.6054C23.2545 14.939 23.6619 15.1902 24.11 15.3391L25.5833 15.8167L25.6122 15.8244C25.697 15.8546 25.7737 15.904 25.8362 15.9688C25.8987 16.0335 25.9454 16.1118 25.9727 16.1976C25.9999 16.2834 26.0069 16.3743 25.9932 16.4632C25.9794 16.5522 25.9453 16.6367 25.8934 16.7103C25.824 16.8084 25.7257 16.8825 25.6122 16.9221L24.1389 17.3997C23.6911 17.5489 23.2842 17.8003 22.9502 18.1338C22.6163 18.4674 22.3646 18.8741 22.2149 19.3217L21.7353 20.7969C21.6955 20.9106 21.6212 21.0092 21.5229 21.0789C21.4246 21.1486 21.307 21.1861 21.1864 21.1861C21.0659 21.1861 20.9483 21.1486 20.85 21.0789C20.7517 21.0092 20.6774 20.9106 20.6376 20.7969L20.1561 19.3217C20.0076 18.8729 19.7566 18.4648 19.423 18.1298C19.0894 17.7949 18.6823 17.5423 18.234 17.392L16.7607 16.9144C16.6759 16.8842 16.5992 16.8348 16.5367 16.7701C16.4742 16.7054 16.4275 16.6271 16.4002 16.5413C16.373 16.4555 16.366 16.3646 16.3797 16.2756C16.3935 16.1867 16.4276 16.1021 16.4795 16.0286C16.5489 15.9304 16.6472 15.8564 16.7607 15.8167L18.234 15.3391C18.6765 15.1861 19.0776 14.9331 19.4063 14.5998C19.735 14.2664 19.9824 13.8617 20.1291 13.4172L20.6087 11.9401C20.6486 11.8271 20.7227 11.7293 20.8207 11.6603C20.9187 11.5913 21.0358 11.5544 21.1556 11.5549ZM9.91205 14.7248C10.0016 14.6353 10.1079 14.5642 10.2249 14.5158C10.3418 14.4673 10.4672 14.4424 10.5938 14.4424C10.7205 14.4424 10.8458 14.4673 10.9628 14.5158C11.0798 14.5642 11.1861 14.6353 11.2756 14.7248C11.3651 14.8143 11.4362 14.9206 11.4846 15.0376C11.5331 15.1545 11.558 15.2799 11.558 15.4065C11.558 15.5331 11.5331 15.6585 11.4846 15.7755C11.4362 15.8925 11.3651 15.9987 11.2756 16.0883L7.42375 19.9399C7.33435 20.0294 7.22818 20.1005 7.11132 20.149C6.99445 20.1975 6.86918 20.2225 6.74265 20.2226C6.61612 20.2227 6.49082 20.1978 6.37389 20.1495C6.25695 20.1011 6.15069 20.0303 6.06116 19.9409C5.88034 19.7603 5.77865 19.5153 5.77847 19.2598C5.77838 19.1333 5.80322 19.008 5.85155 18.8911C5.89989 18.7741 5.97079 18.6679 6.06019 18.5783L9.91205 14.7248ZM5.09723 11.8361C5.18676 11.7465 5.29305 11.6755 5.41003 11.6271C5.52701 11.5786 5.65239 11.5537 5.77901 11.5537C5.90562 11.5537 6.031 11.5786 6.14798 11.6271C6.26496 11.6755 6.37125 11.7465 6.46079 11.8361C6.55032 11.9256 6.62134 12.0319 6.6698 12.1489C6.71825 12.2658 6.74319 12.3912 6.74319 12.5178C6.74319 12.6444 6.71825 12.7698 6.6698 12.8868C6.62134 13.0037 6.55032 13.11 6.46079 13.1995L1.64596 18.0141C1.46514 18.1949 1.2199 18.2965 0.964181 18.2965C0.708465 18.2965 0.463221 18.1949 0.282402 18.0141C0.101583 17.8333 0 17.588 0 17.3323C0 17.0766 0.101583 16.8314 0.282402 16.6506L5.09723 11.8361ZM13.4442 2.51963e-05C13.6129 -0.000905418 13.7777 0.0509504 13.9155 0.148332C14.0533 0.245714 14.1572 0.383747 14.2127 0.543104L14.8829 2.60758C15.091 3.23457 15.4428 3.80421 15.9103 4.27101C16.3778 4.7378 16.948 5.08881 17.5753 5.29601L19.6399 5.96812L19.6823 5.97775C19.8399 6.03501 19.976 6.13937 20.0722 6.27667C20.1684 6.41397 20.22 6.57755 20.22 6.74519C20.22 6.91282 20.1684 7.0764 20.0722 7.2137C19.976 7.351 19.8399 7.45536 19.6823 7.51262L17.6177 8.18473C16.99 8.39167 16.4195 8.74257 15.9516 9.20938C15.4838 9.67619 15.1316 10.246 14.9233 10.8732L14.2531 12.9376C14.211 13.0563 14.1421 13.1635 14.0516 13.2511C13.9611 13.3386 13.8516 13.4039 13.7316 13.442C13.6116 13.48 13.4845 13.4898 13.3601 13.4704C13.2357 13.4511 13.1175 13.4032 13.0147 13.3305L12.9724 13.3016C12.8527 13.2076 12.7636 13.0803 12.7162 12.9357L12.046 10.8751C11.8394 10.246 11.4883 9.67401 11.0207 9.20512C10.5531 8.73622 9.98211 8.38345 9.35353 8.1751L7.28701 7.50299C7.12858 7.44659 6.99149 7.34256 6.89455 7.20515C6.79761 7.06775 6.74557 6.90371 6.74557 6.73556C6.74557 6.5674 6.79761 6.40337 6.89455 6.26596C6.99149 6.12856 7.12858 6.02452 7.28701 5.96812L9.35161 5.29601C9.97145 5.08347 10.5336 4.73006 10.9937 4.26358C11.4539 3.79709 11.7996 3.23024 12.0036 2.60758L12.6738 0.543104C12.7294 0.383434 12.8336 0.245179 12.9717 0.147769C13.1099 0.0503594 13.2751 -0.00130882 13.4442 2.51963e-05Z" fill="#2A2A2A"/>
</svg>
