<svg width="17" height="18" viewBox="0 0 17 18" fill="none" xmlns="http://www.w3.org/2000/svg">
<path d="M4 6C4 5.33696 4.26339 4.70107 4.73223 4.23223C5.20107 3.76339 5.83696 3.5 6.5 3.5C7.16304 3.5 7.79893 3.76339 8.26777 4.23223C8.73661 4.70107 9 5.33696 9 6C9 6.66304 8.73661 7.29893 8.26777 7.76777C7.79893 8.23661 7.16304 8.5 6.5 8.5C5.83696 8.5 5.20107 8.23661 4.73223 7.76777C4.26339 7.29893 4 6.66304 4 6ZM6.5 4.5C6.10218 4.5 5.72064 4.65804 5.43934 4.93934C5.15804 5.22064 5 5.60218 5 6C5 6.39782 5.15804 6.77936 5.43934 7.06066C5.72064 7.34196 6.10218 7.5 6.5 7.5C6.89782 7.5 7.27936 7.34196 7.56066 7.06066C7.84196 6.77936 8 6.39782 8 6C8 5.60218 7.84196 5.22064 7.56066 4.93934C7.27936 4.65804 6.89782 4.5 6.5 4.5Z" fill="#2A2A2A"/>
<path d="M10.123 0.5H6.877C5.777 0.5 4.919 0.5 4.232 0.556C3.534 0.613 2.967 0.731 2.457 0.99C1.61005 1.42147 0.921469 2.11005 0.49 2.957C0.23 3.467 0.113 4.034 0.056 4.732C-7.45058e-09 5.42 0 6.276 0 7.377V10.623C0 11.569 1.49012e-08 12.335 0.036 12.968C0.0386667 13.0327 0.0426668 13.0993 0.0480001 13.168L0.0510001 13.199C0.0860001 13.665 0.146 14.073 0.255 14.445C0.315667 14.6543 0.394 14.8537 0.49 15.043C0.921469 15.89 1.61005 16.5785 2.457 17.01C2.967 17.27 3.534 17.387 4.232 17.444C4.919 17.5 5.776 17.5 6.877 17.5H10.123C11.223 17.5 12.081 17.5 12.768 17.444C13.466 17.387 14.033 17.269 14.543 17.01C15.39 16.5785 16.0785 15.89 16.51 15.043C17.006 14.068 17.003 12.89 17 11.802L16.999 11.46L17 10.623V7.377C17 6.277 17 5.419 16.944 4.732C16.887 4.034 16.769 3.467 16.51 2.957C16.0785 2.11005 15.39 1.42147 14.543 0.99C14.033 0.73 13.466 0.613 12.768 0.556C12.081 0.5 11.224 0.5 10.123 0.5ZM1.053 13.186L1.047 13.116C1.006 12.488 1.65 11.866 2.126 11.407C2.20267 11.3337 2.27333 11.2647 2.338 11.2C2.59 10.946 2.761 10.831 2.914 10.776C3.24657 10.6544 3.61143 10.6544 3.944 10.776C4.096 10.831 4.267 10.946 4.519 11.2C4.774 11.457 5.075 11.817 5.503 12.33C5.62253 12.4738 5.77102 12.5907 5.9388 12.6732C6.10657 12.7557 6.28986 12.8019 6.47669 12.8088C6.66353 12.8157 6.84972 12.7831 7.02311 12.7132C7.19651 12.6433 7.35321 12.5376 7.483 12.403L10.486 9.292C10.573 9.202 10.664 9.1 10.758 8.995C11.103 8.609 11.496 8.169 11.955 8.016C12.2624 7.91374 12.5946 7.91374 12.902 8.016C13.675 8.274 14.401 9.145 15.032 9.902C15.266 10.182 15.486 10.447 15.692 10.659C15.943 10.92 16 11.07 15.999 11.422C15.996 12.292 15.979 12.929 15.924 13.427C15.867 13.932 15.771 14.289 15.619 14.589C15.2834 15.2478 14.7478 15.7834 14.089 16.119C13.743 16.295 13.323 16.395 12.687 16.447C12.045 16.5 11.228 16.5 10.1 16.5H6.9C5.772 16.5 4.955 16.5 4.314 16.447C3.677 16.395 3.257 16.295 2.911 16.119C2.20799 15.76 1.64696 15.174 1.319 14.456C1.181 14.135 1.099 13.743 1.053 13.186ZM16 9.54L15.075 8.582C14.7621 8.24702 14.4365 7.92412 14.099 7.614C13.816 7.366 13.541 7.175 13.218 7.068C12.7055 6.89742 12.1515 6.89742 11.639 7.068C11.316 7.175 11.041 7.366 10.759 7.614C10.484 7.854 10.171 8.179 9.782 8.582L6.763 11.708C6.7308 11.7415 6.69188 11.7679 6.64879 11.7853C6.6057 11.8027 6.55942 11.8108 6.51297 11.8091C6.46652 11.8074 6.42096 11.796 6.37926 11.7754C6.33756 11.7549 6.30067 11.7258 6.271 11.69L6.256 11.672C5.846 11.181 5.518 10.787 5.229 10.495C4.933 10.197 4.639 9.965 4.287 9.836C3.73261 9.6333 3.12439 9.6333 2.57 9.836C2.218 9.966 1.925 10.196 1.628 10.496C1.4096 10.721 1.20011 10.9546 1 11.196V7.4C1 6.272 1 5.455 1.053 4.814C1.105 4.177 1.205 3.757 1.381 3.411C1.7166 2.7522 2.2522 2.2166 2.911 1.881C3.257 1.705 3.677 1.605 4.314 1.553C4.955 1.5 5.772 1.5 6.9 1.5H10.1C11.228 1.5 12.045 1.5 12.686 1.553C13.323 1.605 13.743 1.705 14.089 1.881C14.7478 2.2166 15.2834 2.7522 15.619 3.411C15.795 3.757 15.895 4.177 15.947 4.814C16 5.455 16 6.272 16 7.4V9.54Z" fill="#2A2A2A"/>
</svg>
