<svg width="18" height="18" viewBox="0 0 18 18" fill="none" xmlns="http://www.w3.org/2000/svg">
<path d="M11.9884 6.39111L13.1618 7.56444C14.0462 8.44889 14.3573 6.81778 15.592 6.61333C16.0062 6.544 16.3716 6.40356 16.528 5.94489C16.6667 5.53956 16.5093 5.15822 16.0178 4.66667L14.7778 3.42756M8.11111 9.88889L17 1M5 17C5.52529 17 6.04543 16.8965 6.53073 16.6955C7.01604 16.4945 7.45699 16.1999 7.82843 15.8284C8.19986 15.457 8.4945 15.016 8.69552 14.5307C8.89654 14.0454 9 13.5253 9 13C9 12.4747 8.89654 11.9546 8.69552 11.4693C8.4945 10.984 8.19986 10.543 7.82843 10.1716C7.45699 9.80014 7.01604 9.5055 6.53073 9.30448C6.04543 9.10346 5.52529 9 5 9C3.93913 9 2.92172 9.42143 2.17157 10.1716C1.42143 10.9217 1 11.9391 1 13C1 14.0609 1.42143 15.0783 2.17157 15.8284C2.92172 16.5786 3.93913 17 5 17Z" stroke="#2A2A2A" stroke-linecap="round" stroke-linejoin="round"/>
</svg>
