<svg width="19" height="13" viewBox="0 0 19 13" fill="none" xmlns="http://www.w3.org/2000/svg">
<path d="M18.4122 8.66667H18.4162H18.4083H18.4122ZM17.8541 8.216C17.9333 8.4916 18.1613 8.66493 18.4122 8.66667C18.4676 8.66667 18.5286 8.64933 18.5903 8.632C18.8991 8.528 19.0733 8.15533 18.9703 7.81733C18.9466 7.73933 16.5716 0 9.5004 0C2.4292 0 0.053405 7.73933 0.0296549 7.81733C-0.0732621 8.15533 0.100905 8.51933 0.409656 8.632C0.726324 8.74467 1.05883 8.554 1.16174 8.216L1.16412 8.21167C1.26941 7.87367 3.33092 1.3 9.50831 1.3C15.7166 1.3 17.767 7.93 17.8541 8.216ZM6.72955 8.66667C6.72955 7.86218 7.02148 7.09064 7.54111 6.52178C8.06075 5.95292 8.76552 5.63333 9.5004 5.63333C10.2353 5.63333 10.94 5.95292 11.4597 6.52178C11.9793 7.09064 12.2712 7.86218 12.2712 8.66667C12.2712 9.47116 11.9793 10.2427 11.4597 10.8116C10.94 11.3804 10.2353 11.7 9.5004 11.7C8.76552 11.7 8.06075 11.3804 7.54111 10.8116C7.02148 10.2427 6.72955 9.47116 6.72955 8.66667ZM9.5004 4.33333C8.45058 4.33333 7.44376 4.78988 6.70142 5.60254C5.95909 6.41519 5.54205 7.5174 5.54205 8.66667C5.54205 9.81594 5.95909 10.9181 6.70142 11.7308C7.44376 12.5435 8.45058 13 9.5004 13C10.5502 13 11.557 12.5435 12.2994 11.7308C13.0417 10.9181 13.4587 9.81594 13.4587 8.66667C13.4587 7.5174 13.0417 6.41519 12.2994 5.60254C11.557 4.78988 10.5502 4.33333 9.5004 4.33333Z" fill="#93C9CF"/>
</svg>
