<svg width="158" height="228" viewBox="0 0 158 228" fill="none" xmlns="http://www.w3.org/2000/svg">
<path d="M88.6917 204.434C89.0667 205.869 87.1356 206.537 85.0933 204.965C75.0784 197.247 69.5279 192.44 64.6219 181.532C60.5588 172.494 58.8751 160.859 62.416 150.699C64.5712 144.513 57.417 143.473 53.1622 117.854C47.9042 86.2136 58.8694 62.2858 60.607 45.3386C62.458 27.2836 56.1738 15.3178 54.8494 11.3503C53.2754 6.63031 50.6118 6.04964 50.2542 1.80983C50.1309 0.354555 51.3738 -0.115157 52.6886 0.644668C56.4057 2.7949 61.5179 11.3412 63.4156 16.7873C70.1041 36 68.806 46.6413 63.8513 67.42C57.2905 94.9394 58.6604 115.559 63.2947 132.375C64.0961 135.281 65.1986 138.132 66.1805 141.005C66.9141 143.148 69.1185 134.849 78.7617 132.093C92.3531 128.207 103.299 135.743 105.266 144.868C109.076 162.519 86.4327 171.801 70.6611 157.197C70.0008 156.587 69.3444 155.975 68.6848 155.363C67.6641 156.05 67.8806 157.175 67.7367 158.122C66.8909 163.654 67.4603 169.186 68.8828 174.722C72.839 190.059 88.2293 202.663 88.6917 204.434ZM93.0036 159.357C105.77 155.354 101 138.046 89.9086 136.884C80.8774 135.935 75.3968 140.789 71.2129 147.789C70.6592 148.714 70.8127 149.554 71.455 150.396C73.8625 153.563 76.5396 156.477 80.3735 158.35C84.5807 160.405 88.8159 161.061 93.0036 159.357Z" fill="#2A2A2A"/>
<path d="M102.845 196.103C104.185 200.854 103.139 195.485 108.058 220.32C109.34 226.787 103.341 227.558 96.5803 225.13C88.4107 222.195 79.5754 220.039 76.3254 216.343C75.6953 215.626 75.9102 214.652 76.7396 214.174C77.7422 213.599 78.7127 213.232 81.795 213.987C96.768 217.652 101.224 220.636 101.093 218.729C100.938 216.501 98.1118 203.382 97.9353 197.377C97.8132 193.274 100.505 193.298 101.813 194.623C102.225 195.039 102.485 195.575 102.845 196.103Z" fill="#2A2A2A"/>
</svg>
