<svg width="16" height="16" viewBox="0 0 16 16" fill="none" xmlns="http://www.w3.org/2000/svg">
<path d="M16 0.615385V3.89744C16 4.06065 15.9352 4.21717 15.8198 4.33258C15.7044 4.44799 15.5478 4.51282 15.3846 4.51282C15.2214 4.51282 15.0649 4.44799 14.9495 4.33258C14.8341 4.21717 14.7692 4.06065 14.7692 3.89744V1.23077H8.61539V14.7692H11.2821C11.4453 14.7692 11.6018 14.8341 11.7172 14.9495C11.8326 15.0649 11.8974 15.2214 11.8974 15.3846C11.8974 15.5478 11.8326 15.7044 11.7172 15.8198C11.6018 15.9352 11.4453 16 11.2821 16H4.71795C4.55474 16 4.39821 15.9352 4.28281 15.8198C4.1674 15.7044 4.10256 15.5478 4.10256 15.3846C4.10256 15.2214 4.1674 15.0649 4.28281 14.9495C4.39821 14.8341 4.55474 14.7692 4.71795 14.7692H7.38462V1.23077H1.23077V3.89744C1.23077 4.06065 1.16593 4.21717 1.05053 4.33258C0.93512 4.44799 0.778595 4.51282 0.615385 4.51282C0.452174 4.51282 0.295649 4.44799 0.180242 4.33258C0.0648349 4.21717 0 4.06065 0 3.89744V0.615385C0 0.452174 0.0648349 0.295649 0.180242 0.180242C0.295649 0.0648349 0.452174 0 0.615385 0H15.3846C15.5478 0 15.7044 0.0648349 15.8198 0.180242C15.9352 0.295649 16 0.452174 16 0.615385Z" fill="#969696"/>
</svg>
