<svg width="18" height="33" viewBox="0 0 18 33" fill="none" xmlns="http://www.w3.org/2000/svg">
<path d="M0.480659 0.481942C0.751776 0.20915 1.10921 0.0409152 1.49069 0.00654753C1.87217 -0.0278201 2.25352 0.0738587 2.5683 0.293868L2.79735 0.481942L17.5221 15.33C17.7926 15.6034 17.9594 15.9638 17.9935 16.3485C18.0276 16.7332 17.9268 17.1177 17.7086 17.4351L17.5221 17.6661L2.79735 32.5142C2.50878 32.8065 2.12211 32.9792 1.71353 32.9982C1.30496 33.0173 0.904116 32.8814 0.590005 32.6172C0.275894 32.353 0.0712974 31.9798 0.0165344 31.5711C-0.0382286 31.1624 0.0608156 30.7478 0.294147 30.4091L0.480659 30.1781L14.0503 16.4981L0.480659 2.81804C0.328297 2.66479 0.207413 2.48273 0.124934 2.2823C0.0424542 2.08187 0 1.86699 0 1.64999C0 1.43299 0.0424542 1.21811 0.124934 1.01768C0.207413 0.817249 0.328297 0.635193 0.480659 0.481942Z" fill="#2A2A2A"/>
</svg>
