<svg width="18" height="18" viewBox="0 0 18 18" fill="none" xmlns="http://www.w3.org/2000/svg">
<path d="M1 9H9.82759C10.9983 9 12.1194 8.57867 12.9481 7.82844C13.7768 7.07822 14.2414 6.06044 14.2414 5C14.2414 3.93956 13.7757 2.92178 12.9481 2.17156C12.1206 1.42133 10.9972 1 9.82759 1H1V9ZM1 9H12.0775C12.7249 9.00035 13.3659 9.10407 13.9632 9.30516C14.5606 9.50625 15.1026 9.80072 15.5578 10.1716C16.4825 10.9244 17.0008 11.9409 17 13C17.0008 14.0591 16.4825 15.0756 15.5578 15.8284C15.1024 16.1994 14.5603 16.4939 13.9627 16.695C13.3652 16.8961 12.724 16.9998 12.0764 17H1V9Z" stroke="#2A2A2A" stroke-width="1.2" stroke-linecap="round" stroke-linejoin="round"/>
</svg>
