<svg width="17" height="16" viewBox="0 0 17 16" fill="none" xmlns="http://www.w3.org/2000/svg">
<path d="M0.92317 1.30786H16.0762C16.3099 1.30786 16.4994 1.0164 16.4994 0.654856C16.4994 0.293309 16.3099 1.27554e-05 16.0762 1.27554e-05H0.92317C0.690724 1.27554e-05 0.5 0.293309 0.5 0.654856C0.5 1.0164 0.690724 1.30786 0.92317 1.30786Z" fill="#2A2A2A"/>
<path d="M0.924054 6.20459H16.0766C16.31 6.20459 16.4999 5.91244 16.4999 5.55134C16.4999 5.18842 16.31 4.89628 16.0766 4.89628H0.924054C0.690703 4.89628 0.500732 5.18842 0.500732 5.55134C0.500732 5.91244 0.690703 6.20459 0.924054 6.20459Z" fill="#2A2A2A"/>
<path d="M0.922798 11.1029H16.0758C16.3087 11.1029 16.499 10.8102 16.499 10.4498C16.499 10.0875 16.3087 9.79484 16.0758 9.79484H0.922798C0.689852 9.79484 0.500732 10.0875 0.500732 10.4498C0.500732 10.8102 0.689852 11.1029 0.922798 11.1029Z" fill="#2A2A2A"/>
<path d="M0.92412 16H16.0772C16.3096 16 16.5001 15.7052 16.5001 15.3456C16.5001 14.9841 16.3096 14.6912 16.0772 14.6912H0.92412C0.690561 14.6912 0.501221 14.9841 0.501221 15.3456C0.501221 15.7052 0.690561 16 0.92412 16Z" fill="#2A2A2A"/>
</svg>
