<svg width="26" height="26" viewBox="0 0 26 26" fill="none" xmlns="http://www.w3.org/2000/svg">
<path d="M25.7101 0.198483C25.8458 0.314458 25.9403 0.471276 25.9797 0.645512C26.019 0.819748 26.001 1.00205 25.9283 1.16518C23.3991 6.8429 18.0878 14.6891 14.1998 18.7777C13.1087 19.9199 11.7651 20.7896 10.277 21.3169C10.2473 21.6927 10.1779 22.2075 10.0125 22.7537C9.68028 23.8446 8.90995 25.2019 7.1891 25.634C5.52263 26.0321 3.79535 26.1063 2.10096 25.8525C1.78631 25.8005 1.47582 25.7258 1.17193 25.629C0.891607 25.5428 0.630192 25.4041 0.401602 25.2201C0.250376 25.0927 0.134277 24.9286 0.0643763 24.7434C-0.0236824 24.5065 -0.0213278 24.2454 0.0709886 24.0101C0.22803 23.6046 0.593358 23.3811 0.833053 23.2619C1.48436 22.9358 1.86622 22.5121 2.26626 21.8946C2.42331 21.6563 2.57043 21.403 2.74069 21.1133L2.9341 20.7856C3.18372 20.3635 3.473 19.8917 3.83668 19.3819C4.7095 18.1586 5.82202 17.8507 6.72294 17.8987C6.93233 17.9119 7.12408 17.9384 7.2982 17.9782C7.40069 17.6934 7.53294 17.3491 7.69164 16.9717C8.12309 15.9471 8.77936 14.6228 9.65383 13.5469C13.2509 9.12722 19.8698 3.27405 24.7249 0.13227C24.8743 0.0356657 25.0509 -0.0100705 25.2284 0.00185834C25.4059 0.0137872 25.5748 0.0827444 25.7101 0.198483ZM7.32796 19.7179C7.10894 19.6213 6.87428 19.5653 6.63532 19.5524C6.22867 19.5308 5.68812 19.6351 5.18228 20.3453C4.85662 20.8005 4.59544 21.2259 4.35574 21.6314L4.18217 21.9244C4.00695 22.224 3.83007 22.5236 3.65319 22.7984C3.31815 23.3414 2.89331 23.8233 2.39686 24.2236C3.53747 24.409 5.26658 24.4074 6.78906 24.025C7.71313 23.7949 8.1826 23.0831 8.43056 22.2704C8.5523 21.8671 8.62229 21.4499 8.63884 21.0289L7.32796 19.7179ZM9.70838 19.7609C9.90675 19.6947 10.1663 19.5954 10.4655 19.458C11.4171 19.0145 12.2777 18.397 13.0029 17.6372C16.1438 14.3332 20.2963 8.4171 23.0073 3.35019C18.7259 6.53997 13.8063 11.0639 10.9366 14.5931C10.206 15.4919 9.62242 16.6506 9.21411 17.6157C9.01409 18.0924 8.86036 18.5095 8.75952 18.8075L9.70838 19.7609Z" fill="#2A2A2A"/>
</svg>
