<svg width="640" height="864" viewBox="0 0 640 864" fill="none" xmlns="http://www.w3.org/2000/svg">
<mask id="mask0_15_135" style="mask-type:alpha" maskUnits="userSpaceOnUse" x="0" y="0" width="640" height="865">
<path d="M0 20.0001C0 8.9544 8.95431 0.00012207 20 0.00012207H640V864H20C8.95431 864 0 855.046 0 844V20.0001Z" fill="#F9F9F9"/>
</mask>
<g mask="url(#mask0_15_135)">
<path d="M277.498 127.219C273.075 153.23 252.277 175.713 226.683 182.132C199.014 189.073 169.751 178.325 141.46 181.957C118.1 184.954 97.1987 197.469 77.1354 209.798C57.0687 222.133 36.3383 234.839 13.0429 238.305C-10.2525 241.77 -37.0155 233.508 -48.0652 212.708C-61.0041 188.34 -47.8687 157.885 -29.4626 137.33C-11.0547 116.78 16.8966 102.731 26.8341 76.9994C44.6348 30.8945 69.8853 15.6963 94.6156 13.8622C137.927 10.648 152.668 32.549 195.224 41.2265C213.39 44.929 232.198 48.3958 247.675 58.595C269.708 73.1091 281.919 101.203 277.497 127.214L277.498 127.219Z" fill="#EDC8AB"/>
<path d="M277.571 110.68C275.569 138.865 255.003 164.135 227.945 172.037C212.303 176.605 195.776 176.011 179.656 176.14C171.604 176.203 163.524 176.413 155.532 177.468C147.14 178.575 138.961 180.728 131.124 183.938C97.6878 197.647 73.4528 226.226 41.3088 242.176C27.4496 249.052 12.2599 253.216 -3.28907 251.738C-16.3882 250.493 -29.499 245.491 -38.5452 235.648C-60.1136 212.179 -47.8888 176.064 -31.4614 153.49C-15.5919 131.68 9.63198 115.734 18.6975 89.3534C19.9685 85.6542 20.884 81.8424 22.0682 78.1172C23.3977 73.9362 24.889 69.8058 26.5606 65.7475C29.3173 59.0604 32.5765 52.5582 36.5298 46.4927C42.7845 36.8943 50.8939 28.4444 60.8903 22.7232C70.6776 17.1233 81.7291 14.7761 92.8927 13.9986C105.724 13.1034 118.226 15.1083 130.495 18.767C142.609 22.3784 154.427 26.8862 166.774 29.7116C181.957 33.1843 197.571 33.4496 212.881 36.1386C227.93 38.7778 242.474 43.8702 254.029 54.1706C264.633 63.6214 272.228 76.3399 275.699 90.102C277.393 96.8192 278.014 103.769 277.577 110.683C277.48 112.224 279.878 112.064 279.972 110.541C281.801 81.4573 264.339 52.6827 237.737 40.844C222.953 34.2642 206.655 32.5128 190.72 30.9322C182.819 30.1473 174.999 29.1287 167.246 27.3584C160.669 25.8552 154.207 23.9231 147.79 21.8425C136.054 18.0353 124.386 13.8214 112.09 12.1914C99.183 10.4807 85.4209 11.2089 72.9233 14.9782C62.9072 17.9964 53.8503 23.4864 46.3275 30.735C36.5441 40.1671 29.553 52.2087 24.4034 64.691C22.7727 68.6408 21.3223 72.6627 20.007 76.7219C18.6918 80.7812 17.6866 85.1299 16.2167 89.2251C13.8785 95.7362 10.3647 101.769 6.27314 107.331C-2.15271 118.771 -12.7143 128.384 -22.3162 138.79C-32.5068 149.835 -41.1802 162.116 -46.6856 176.183C-52.0583 189.904 -54.6292 205.447 -50.2429 219.804C-46.1921 233.063 -36.3031 243.419 -23.7214 248.991C-11.1396 254.563 3.22111 255.69 16.6336 253.233C52.6973 246.63 79.027 217.977 108.576 198.755C116.436 193.639 124.666 189.038 133.407 185.608C141.603 182.392 150.129 180.405 158.88 179.487C175.335 177.763 191.916 179.168 208.391 177.844C223.722 176.609 238.57 172.522 250.986 163.156C262.087 154.782 270.808 143.197 275.687 130.167C278.057 123.846 279.489 117.271 279.967 110.542C280.076 109.003 277.677 109.164 277.572 110.685L277.571 110.68Z" fill="#2A2A2A"/>
<path d="M761.651 643.028C761.61 703.24 708.918 759.139 657.512 812.269C626.583 844.255 592.878 877.874 535.96 896.023C447.501 924.248 336.238 906.021 239.899 887.219C178.632 875.251 113.732 861.853 74.9025 833.109C36.8485 804.929 31.4793 767.324 34.8478 732.231C40.115 677.424 63.9191 622.368 115.406 575.408C166.914 528.448 247.84 490.123 343.751 475.521C388.072 468.777 450.441 469.182 516.811 477.255C656.288 494.222 758.792 560.896 761.548 639.65C761.589 640.776 761.61 641.902 761.61 643.028H761.651Z" fill="#EDC8AB"/>
<path d="M786.802 619.419C792.294 670.33 760.732 719.396 724.392 765.377C707.672 786.543 690.85 807.89 671.088 828.268C652.735 847.205 630.544 865.444 599.88 879C535.654 907.394 448.971 905.649 372.577 897.149C332.788 892.713 293.468 886.622 254.679 880.035C217.401 873.708 180.082 866.131 148.03 853.622C115.917 841.092 92.9699 823.539 79.9858 803.127C66.6342 782.141 62.7555 759.691 62.2655 737.568C61.1631 688.817 74.2287 639.279 108.873 594.188C139.557 554.242 188.064 518.034 251.862 492.33C282.035 480.171 315.843 470.038 351.651 463.947C390.522 457.338 432.393 456.471 472.734 457.867C512.013 459.218 550.965 462.844 587.774 470.725C618.968 477.401 648.346 486.892 674.151 498.624C726.434 522.402 764.059 555.244 779.432 591.688C783.29 600.819 785.7 610.085 786.781 619.441C787.169 622.807 796.724 622.83 796.336 619.441C791.844 580.553 763.917 543.411 717.125 514.206C670.905 485.338 607.699 465.197 539.369 457.327C495.905 452.317 449.971 450.74 405.772 453.026C386.643 454.017 367.534 455.762 349.14 458.88C330.767 461.999 312.883 466.266 295.795 471.13C225.955 491.024 168.67 523.235 128.982 560.423C83.3747 603.15 60.9998 652.418 54.6507 701.596C51.5884 725.296 51.3433 749.423 57.3658 772.988C63.0004 795.032 75.2904 817.155 99.7887 835.136C123.838 852.789 157.747 864.915 194.127 873.573C231.324 882.422 270.725 888.412 309.739 894.244C348.752 900.076 391.624 905.48 433.619 907.338C475.613 909.196 514.789 907.664 552.537 899.772C590.285 891.88 621.439 877.784 645.916 860.153C670.476 842.454 688.135 822.211 704.916 802.046C743.501 755.683 783.188 708.081 794.233 656.899C796.907 644.469 797.704 631.938 796.356 619.441C795.989 616.075 786.455 616.052 786.802 619.441V619.419Z" fill="#2A2A2A"/>
<path d="M749.924 839.486C732.84 869.026 701.085 888.586 668.439 905.751C646.455 917.305 622.682 928.317 593.393 927.986C564.101 927.642 527.878 912.716 511.651 887.808C496.788 864.989 502.709 841.147 515.335 824.21C527.946 807.265 546.544 794.428 557.776 776.612C568.884 758.96 572.246 737.286 578.695 717.213C578.755 717.026 578.816 716.84 578.876 716.653C593.451 671.85 664.313 667.699 715.132 708.988C724.521 716.617 732.703 724.684 738.851 732.55C766.823 768.321 767.008 809.946 749.924 839.486Z" fill="#85544D"/>
<path d="M749.569 848.357C733.793 868.469 710.193 882.54 684.865 893.929C672.443 899.511 659.606 904.653 646.453 909.316C634.27 913.64 621.566 917.395 607.743 919.181C594.499 920.892 580.148 920.83 565.417 917.373C551.762 914.168 537.851 908.264 525.829 899.967C513.806 891.67 504.698 881.336 500.131 870.02C495.493 858.528 496.124 847.26 499.603 837.642C507.961 814.529 531.337 801.772 550.065 786.062C555.141 781.804 559.904 777.277 564.006 772.275C568.362 766.963 571.956 761.151 575.112 755.105C581.488 742.904 586.105 729.795 592.096 717.398C600.305 700.402 618.133 689.443 641.385 687.623C663.965 685.858 689.9 692.809 711.887 706.913C725.069 715.37 736.518 726.316 745.638 737.771C754.321 748.677 760.426 760.506 763.829 772.184C770.571 795.335 767.323 817.525 757.76 835.693C755.418 840.147 752.674 844.37 749.577 848.361C748.527 849.715 751.8 851.592 752.844 850.247C765.926 833.413 772.814 811.969 770.45 788.646C769.294 777.246 765.789 765.348 759.644 753.785C752.697 740.718 742.287 728.304 730.044 717.376C709.991 699.475 683.618 687.591 658.396 684.965C633.679 682.388 611.288 688.659 597.922 702.477C589.491 711.189 585.497 722.691 580.849 733.62C575.299 746.675 569.575 759.782 560.437 770.778C543.879 790.687 516.608 802.183 502.382 823.828C496.63 832.583 492.948 842.815 493.355 854.173C493.751 865.384 498.739 877.493 508.178 888.065C527.625 909.845 559.725 921.953 586.52 923.112C617.249 924.441 642.952 914.685 667.221 905.048C694.083 894.377 720.219 882.086 739.961 864.089C744.678 859.791 748.982 855.167 752.847 850.242C753.903 848.892 750.63 847.016 749.58 848.356L749.569 848.357Z" fill="#2A2A2A"/>
<path d="M-73.2285 -49.1533C-48.7288 -72.9073 -12.8401 -83.0541 23.2525 -90.6544C47.5556 -95.7674 73.4312 -99.8702 101.518 -91.5561C129.603 -83.228 160.375 -58.9793 169.185 -30.587C177.254 -4.577 165.048 16.7419 148.278 29.5885C131.52 42.447 110.124 49.7191 94.4548 63.7915C78.9493 77.7398 69.7976 97.6729 58.1129 115.222C58.004 115.386 57.8952 115.549 57.7864 115.712C31.5326 154.834 -37.7705 139.48 -75.3857 85.8862C-82.3356 75.983 -88.0042 65.989 -91.7714 56.7433C-108.915 14.6945 -97.7282 -25.3993 -73.2285 -49.1533Z" fill="#85544D"/>
<path d="M-70.4655 -57.5903C-49.7974 -72.6308 -23.2525 -79.7245 4.22235 -83.7658C17.6968 -85.7444 31.4495 -87.186 45.376 -88.0814C58.2768 -88.9149 71.5236 -89.0583 85.309 -87.003C98.5172 -85.0331 112.306 -81.0552 125.533 -73.7076C137.794 -66.8969 149.565 -57.4197 158.866 -46.1552C168.166 -34.8908 174.108 -22.463 175.412 -10.3298C176.736 1.99135 173.052 12.6598 167.079 20.9619C152.729 40.9151 126.758 46.8057 104.452 56.8053C98.4065 59.5162 92.5887 62.5706 87.2772 66.2634C81.6361 70.184 76.5913 74.7941 71.9049 79.7481C62.4403 89.7451 54.4198 101.096 45.2716 111.386C32.7348 125.496 12.5913 131.171 -10.2741 126.574C-32.4782 122.107 -55.5298 108.339 -72.831 88.7676C-83.2037 77.0334 -91.2288 63.3774 -96.8753 49.8678C-102.25 37.0054 -104.894 23.9593 -104.98 11.7959C-105.145 -12.3168 -95.9618 -32.7765 -81.8022 -47.6436C-78.3328 -51.2891 -74.5407 -54.6021 -70.4713 -57.5963C-69.092 -58.6126 -71.7284 -61.3111 -73.0993 -60.3029C-90.2804 -47.6796 -102.761 -28.9304 -106.854 -5.84876C-108.855 5.43445 -108.731 17.8375 -105.977 30.6382C-102.861 45.1054 -96.2355 59.89 -87.4416 73.7453C-73.0378 96.4408 -50.9107 115.074 -27.364 124.487C-4.29009 133.713 18.963 133.794 35.5932 124.15C46.0824 118.071 53.0653 108.096 60.5208 98.8506C69.4237 87.8076 78.5089 76.7606 90.3017 68.6772C111.666 54.0448 141.039 50.4317 160.634 33.4929C168.558 26.6408 174.893 17.8023 177.603 6.76502C180.283 -4.1279 178.791 -17.1393 172.596 -29.8862C159.834 -56.1481 132.26 -76.5604 106.799 -84.9908C77.6002 -94.6585 50.21 -92.2909 24.2321 -89.6454C-4.52269 -86.7137 -33.0213 -82.0243 -56.9272 -70.1015C-62.6385 -67.2544 -68.0408 -63.9807 -73.1035 -60.2988C-74.4885 -59.2884 -71.8521 -56.5899 -70.4755 -57.5922L-70.4655 -57.5903Z" fill="#2A2A2A"/>
<path d="M346.292 478.23C310.516 490.08 261.002 464.039 223.411 432.685C185.821 401.33 152.711 363.152 111.519 338.176C86.0209 322.708 58.6957 313.14 32.9327 298.373C7.17526 283.599 -18.6525 261.037 -26.8317 234.919C-35.977 205.776 -19.4687 181.291 5.01556 172.762C29.5083 164.241 60.1926 168.414 89.9436 174.359C119.695 180.304 150.173 188.008 178.045 186.339C214.214 184.153 242.532 166.455 272.67 152.907C276.523 151.172 280.472 149.502 284.506 147.946C316.541 135.567 359.637 144.895 394.881 172.949C395.825 173.701 396.764 174.459 397.691 175.23C416.806 191.081 434.012 211.893 443.137 232.781C448.79 245.721 451.364 258.693 449.385 270.551C445.316 294.986 423.622 308.233 411.254 327.756C396.552 350.974 395.367 382.476 390.192 411.356C385.025 440.244 373.779 469.132 346.295 478.244L346.292 478.23Z" fill="#C4DEE1"/>
<path d="M364.82 468.813C335.165 482.76 292.779 466.677 258.475 445.308C236.781 431.791 216.775 415.01 196.713 398.769C175.588 381.667 154.045 364.558 130.733 351.468C107.319 338.319 82.9997 330.802 58.9854 321.22C37.0457 312.46 14.7484 301.074 -3.22687 283.14C-11.6098 274.773 -18.5644 265.122 -22.7176 254.899C-26.3255 246.018 -27.4944 237.098 -26.6712 228.935C-24.997 212.304 -15.408 198.879 -2.16399 191.012C13.6579 181.617 34.5268 179.465 55.3843 180.033C77.4686 180.634 100.289 184.321 122.689 186.222C145.122 188.121 166.935 187.904 186.316 182.011C206.075 175.998 222.906 165.64 239.267 154.955C247.511 149.578 255.665 144.075 264.148 138.986C271.771 134.405 279.593 130.156 288.709 127.752C304.723 123.527 323.298 124.015 342.104 129.562C362.57 135.595 382.225 147.345 399.439 162.682C418.042 179.246 434.692 200.527 440.863 222.393C443.916 233.199 444.097 243.591 441.558 252.821C439.025 262.078 434.303 270.057 429.245 277.648C424.113 285.354 418.6 292.79 414.182 301.036C409.719 309.366 406.777 318.624 404.872 328.412C397.089 368.414 406.824 417.252 385.257 450.443C380.188 458.252 373.409 464.618 364.789 468.796C362.392 469.954 365.595 474.324 367.987 473.172C386.464 464.222 396.165 445.86 400.853 425.702C405.611 405.21 405.325 382.767 406.432 360.861C407.516 339.253 410.397 318.393 420.287 301.195C429.739 284.767 443.459 270.966 447.29 250.852C455.007 210.357 412.96 160.938 371.655 137.645C353.071 127.16 333.13 121.154 314.53 120.3C305.306 119.876 296.403 120.643 288.147 122.641C278.742 124.916 270.609 128.904 262.77 133.514C245.349 143.763 229.408 155.824 211.531 165.507C202.565 170.369 193.113 174.683 182.891 177.677C172.97 180.583 162.365 182.145 151.283 182.531C107.387 184.048 58.2827 168.938 16.9985 178.196C-1.02962 182.235 -15.9894 191.134 -24.7234 206.06C-32.5267 219.37 -34.5789 237.167 -27.1118 255.546C-18.346 277.118 1.49782 295.104 21.9066 307.693C44.7435 321.78 69.1455 329.397 92.9177 338.608C105.169 343.355 117.33 348.611 129.197 355.269C141.063 361.927 153.006 370.009 164.359 378.426C186.881 395.136 208.098 413.766 230.489 430.687C264.979 456.753 307.003 480.273 344.541 478.683C353.07 478.324 361.008 476.432 367.995 473.146C370.403 472.009 367.2 467.639 364.797 468.77L364.82 468.813Z" fill="#2A2A2A"/>
<path d="M84.6377 492.453C89.3853 512.384 80.482 533.67 66.2828 548.439C52.0837 563.207 33.239 572.533 14.4192 580.627C-16.4013 593.875 -51.51 604.655 -82.9296 592.899C-110.793 582.481 -129.754 556.268 -142.06 529.186C-160.027 489.661 -166.986 442.603 -149.018 403.082C-132.839 367.502 -92.0681 324.302 -37.3147 347.621C-7.53266 360.306 -7.74365 396.605 7.42147 414.795C31.2548 443.356 76.0232 456.274 84.6399 492.459L84.6377 492.453Z" fill="#85544D"/>
<path d="M81.9916 505.628C84.2278 518.334 81.1296 531.208 74.9149 542.368C68.0438 554.722 57.5822 564.435 45.7471 571.971C32.5847 580.348 17.9422 586.14 3.29917 591.368C-9.55123 595.955 -22.693 599.961 -36.1581 602.273C-49.2689 604.524 -62.7846 605.206 -75.9222 602.769C-89.0224 600.34 -101.206 594.682 -111.541 586.277C-121.935 577.823 -130.285 567.126 -137.071 555.628C-143.939 543.993 -149.263 531.46 -153.473 518.633C-157.699 505.761 -160.728 492.49 -162.216 479.017C-163.691 465.72 -163.677 452.227 -161.671 438.989C-159.677 425.859 -155.722 413.05 -149.567 401.257C-144.66 391.856 -138.552 383.075 -131.508 375.15C-123.988 366.693 -115.313 359.203 -105.518 353.48C-95.6078 347.689 -84.5046 343.896 -73.0193 343.07C-59.9323 342.133 -46.9436 345.143 -35.1408 350.746C-29.35 353.498 -24.1539 357.222 -19.9759 362.118C-16.0801 366.681 -13.0918 371.934 -10.6802 377.408C-5.95268 388.16 -3.37547 399.684 1.13704 410.517C3.2404 415.563 5.84812 420.239 9.25674 424.52C13.2009 429.483 17.6592 434.025 22.3426 438.294C31.8167 446.942 42.206 454.501 52.0282 462.75C61.2528 470.497 70.2204 478.987 76.1753 489.591C78.9693 494.564 80.9819 500.009 82.0102 505.622C82.1635 506.465 82.7676 507.145 83.6868 507.091C84.4588 507.052 85.313 506.249 85.1556 505.414C82.9077 493.115 76.4671 482.534 68.0695 473.443C59.672 464.353 49.058 456.226 39.0623 448.239C28.9597 440.163 18.8061 431.821 10.8985 421.497C3.93377 412.411 1.01157 401.034 -2.51101 390.33C-6.33299 378.723 -10.8645 366.993 -19.4579 358.019C-24.1951 353.074 -29.9473 349.55 -36.174 346.802C-42.5323 343.996 -49.2249 341.889 -56.0824 340.75C-68.2266 338.733 -80.7051 339.862 -92.3243 343.911C-103.944 347.959 -113.54 354.093 -122.388 361.746C-130.975 369.17 -138.491 377.8 -144.824 387.215C-151.675 397.401 -157.061 408.427 -160.652 420.179C-164.611 433.156 -166.359 446.736 -166.397 460.279C-166.437 474.135 -164.651 487.949 -161.54 501.436C-158.435 514.904 -153.989 528.109 -148.291 540.699C-142.588 553.302 -135.552 565.421 -126.527 575.941C-117.723 586.204 -107.025 594.913 -94.5705 600.353C-82.0675 605.81 -68.3911 607.817 -54.8163 607.385C-40.9633 606.954 -27.249 604.118 -13.964 600.285C0.388843 596.143 14.6282 591.013 28.2363 584.844C42.3917 578.429 56.1383 570.294 66.7927 558.811C75.7332 549.179 82.5353 537.128 84.9656 524.131C86.1191 517.957 86.2343 511.593 85.1451 505.404C84.7997 503.425 81.6478 503.614 81.9976 505.605L81.9916 505.628Z" fill="#2A2A2A"/>
<path d="M818.082 3.38193C834.813 26.8405 830.301 63.0067 812.626 85.7537C798.23 104.272 773.813 112.873 759.456 131.425C746.999 147.538 743.898 168.746 736.768 187.83C718.575 236.567 671.133 272.213 619.587 279.228C568.034 286.236 514.218 265.662 478.1 228.218C441.989 190.767 414.594 136.746 425.123 85.7974C467.788 -120.611 737.47 -109.68 818.082 3.38193Z" fill="#85544D"/>
<path d="M826.384 25.5889C837.182 43.1324 836.376 65.7725 829.052 84.4518C825.221 94.2146 819.503 103.428 811.849 110.66C802.581 119.42 791.237 125.501 780.522 132.259C770.119 138.818 760.272 146.272 753.255 156.537C746.632 166.213 742.423 177.244 738.384 188.171C734.415 198.907 730.399 209.615 724.619 219.541C719.028 229.136 712.231 238.039 704.543 246.051C689.164 262.088 670.029 274.511 649.31 282.472C628.71 290.393 606.557 293.679 584.545 292.031C563.083 290.43 542.091 284.426 522.816 274.915C503.508 265.393 485.859 252.271 471.294 236.399C457.246 221.09 445.326 203.508 436.176 184.861C427.106 166.368 420.645 146.416 418.809 125.836C417.916 115.86 418.162 105.796 419.727 95.8971C421.373 85.5095 424.569 75.3751 428.143 65.5061C434.823 47.0534 443.847 29.4683 455.422 13.5997C465.98 -0.879785 478.558 -13.7933 492.777 -24.7001C506.493 -35.2114 521.6 -43.7783 537.566 -50.3731C553.487 -56.9456 570.163 -61.5673 587.15 -64.3771C604.217 -67.1975 621.58 -68.2578 638.865 -67.6376C656.114 -67.0152 673.309 -64.7943 690.146 -61.0309C706.582 -57.3647 722.684 -52.1882 738.141 -45.5152C752.929 -39.1255 767.138 -31.3519 780.279 -22.0248C792.658 -13.2363 804.112 -3.10348 813.895 8.51499C818.443 13.9136 822.62 19.6188 826.354 25.5991C827.978 28.1959 831.754 25.2977 830.142 22.7168C822.046 9.76457 811.885 -1.8053 800.517 -11.9907C788.518 -22.7398 775.142 -31.8633 761.046 -39.6218C746.159 -47.8088 730.405 -54.3938 714.205 -59.4836C697.43 -64.7515 680.16 -68.4739 662.703 -70.5589C645.128 -72.6672 627.331 -73.1358 609.673 -71.8514C591.966 -70.5667 574.389 -67.4588 557.363 -62.4206C540.376 -57.3988 524.018 -50.3432 508.788 -41.2934C493.35 -32.1222 479.248 -20.8142 466.926 -7.74449C453.723 6.24736 442.777 22.2656 434.13 39.438C429.429 48.7828 425.422 58.4788 422.065 68.3843C418.646 78.4742 415.692 88.777 414.401 99.3842C411.892 120.016 414.862 140.978 421.19 160.691C427.73 181.06 437.889 200.258 450.212 217.709C462.792 235.53 477.783 251.467 495.577 264.152C513.456 276.898 533.59 286.383 554.841 291.901C576.236 297.461 598.842 298.833 620.687 295.191C643.174 291.451 664.748 282.663 683.585 269.851C702.25 257.157 718.148 240.398 729.328 220.758C735.193 210.465 739.24 199.419 743.348 188.352C747.489 177.197 751.898 165.901 759.207 156.382C775.115 135.657 802.655 128.914 819.67 109.295C833.309 93.5645 840.486 71.7683 839.044 51.0138C838.343 40.9924 835.409 31.2744 830.136 22.7088C828.528 20.0999 824.752 22.9981 826.348 25.5911L826.384 25.5889Z" fill="#2A2A2A"/>
<path d="M686.168 209.965C690.739 233.267 679.805 257.493 664.268 275.451C647.571 294.76 624.173 308.164 599.069 312.802C583.369 315.704 566.834 315.199 551.82 309.765C531.643 302.458 515.143 286.375 505.798 267.066C496.453 247.756 494.01 225.453 497.276 204.248C499.872 187.362 506.352 170.503 518.71 158.708C529.249 148.643 543.326 142.844 557.661 140.237C625.822 127.852 675.922 157.695 686.168 209.965Z" fill="#EDC8AB"/>
<path d="M682.472 208.714C688.252 227.665 683.208 248.057 673.952 265.02C664.101 283.078 649.101 298.115 631.281 308.34C613.46 318.564 590.879 324.755 569.631 322.085C550.3 319.656 532.782 309.499 519.982 294.958C505.574 278.591 497.984 257.093 496.628 235.494C495.396 215.916 498.573 194.399 510.685 178.373C517.049 169.949 525.653 163.558 535.109 158.995C544.152 154.629 554.01 152.019 563.821 150.049C580.212 146.759 597.296 145.931 613.79 148.981C628.008 151.611 641.773 157.16 653.281 166.009C664.408 174.559 673.123 185.882 678.768 198.715C680.197 201.97 681.416 205.313 682.47 208.709C682.959 210.283 685.426 209.584 684.935 208.004C682.724 200.856 679.71 193.936 675.853 187.516C671.995 181.095 667.665 175.667 662.539 170.646C657.39 165.608 651.576 161.237 645.33 157.65C639.084 154.063 631.963 151.063 624.834 148.972C617.21 146.737 609.327 145.417 601.407 144.851C592.79 144.239 584.122 144.543 575.551 145.581C566.05 146.734 556.633 148.731 547.472 151.49C537.044 154.633 527.062 159.491 518.628 166.439C510.69 172.982 504.625 181.415 500.668 190.893C496.795 200.173 494.797 210.115 494.11 220.12C493.325 231.503 494.201 243.033 496.77 254.157C499.339 265.282 503.678 276.074 509.836 285.702C515.111 293.947 521.74 301.362 529.394 307.465C537.048 313.567 545.596 318.328 554.848 321.38C565.146 324.778 576.155 325.821 586.944 324.978C597.885 324.12 608.67 321.424 618.819 317.262C628.691 313.214 637.986 307.829 646.383 301.245C654.826 294.625 662.328 286.89 668.634 278.203C674.583 270.01 679.444 260.991 682.825 251.438C686.134 242.084 687.967 232.076 687.418 222.139C687.154 217.352 686.336 212.589 684.935 208.004C684.456 206.427 681.99 207.126 682.47 208.709L682.472 208.714Z" fill="#2A2A2A"/>
<path d="M363.727 -103.87C371.019 -119.729 390.907 -126.356 408.216 -124.179C425.53 -121.992 441.12 -113.046 456.71 -105.196C493.492 -86.674 532.928 -73.4374 573.43 -66.0129C596.219 -61.8409 619.47 -59.4623 641.478 -52.2289C663.48 -44.9984 684.701 -32.1139 696.274 -12.0471C707.844 8.02604 707.231 36.101 690.597 52.2218C668.27 73.8624 631.464 65.6406 601.71 74.6645C584.764 79.8111 570.236 90.6236 555.242 100.052C540.248 109.481 523.535 117.901 505.833 117.284C494.343 116.886 474.92 110.383 462.137 92.6449C448.808 74.1602 427.196 63.6149 404.424 64.5379C400.458 64.6985 396.805 64.669 393.77 64.3614C376.411 62.6077 358.075 50.2273 357.953 32.7709C357.843 16.2193 373.476 3.80825 377.718 -12.1915C385.845 -42.8569 350.489 -75.0616 363.742 -103.886L363.727 -103.87Z" fill="#C4DEE1"/>
<path d="M357.075 -108.371C363.217 -122.417 378.908 -128.959 393.465 -129.387C411.92 -129.924 429.238 -120.773 445.427 -113.059C480.686 -96.258 518.037 -84.001 556.474 -76.9566C592.676 -70.3168 631.834 -70.405 664.461 -51.3399C678.481 -43.1459 691.078 -31.1774 697.154 -15.8572C702.527 -2.31554 703.102 13.6464 696.923 27.026C684.424 54.0767 651.632 54.7262 626.161 57.9434C619.393 58.7947 612.647 59.8668 606.041 61.5928C598.276 63.6228 590.938 66.8072 583.934 70.6876C568.954 78.989 555.772 90.1341 540.775 98.4053C527.644 105.651 512.404 110.969 497.285 107.997C490 106.564 482.944 103.648 476.715 99.6116C472.997 97.2014 469.54 94.3813 466.438 91.2158C463.224 87.9466 460.637 84.1465 457.536 80.7777C446.081 68.3762 430.229 60.354 413.422 58.6016C404.95 57.7172 396.444 59.3649 388.006 58.2083C381.461 57.3087 375.022 55.0289 369.46 51.4546C364.049 47.9795 359.275 43.1387 356.859 37.1031C354.019 30.0207 355.141 22.4731 358.12 15.6272C361.551 7.7395 366.745 0.77561 370.44 -6.97702C373.342 -13.0719 374.979 -19.4776 374.886 -26.2326C374.722 -38.0313 369.913 -49.2751 365.323 -59.9358C360.777 -70.4934 355.513 -81.385 354.678 -93.0206C354.301 -98.2719 355.048 -103.503 357.09 -108.371C357.923 -110.351 354.882 -111.742 354.047 -109.756C349.436 -98.7773 351.31 -87.0473 355.111 -76.133C359.137 -64.5803 364.999 -53.7414 368.669 -42.0556C370.432 -36.4456 371.653 -30.591 371.543 -24.6846C371.399 -17.0249 368.51 -10.0623 364.823 -3.45532C360.654 4.01298 355.619 11.1557 353.167 19.4356C351.108 26.3678 351.377 33.7999 354.64 40.3187C360.735 52.473 374.387 59.7137 387.471 61.51C395.922 62.6723 404.409 61.0161 412.887 61.9034C421.668 62.8227 430.192 65.4695 437.951 69.6807C445.801 73.941 452.791 79.8276 458.327 86.8297C463.954 93.9332 470.323 99.9533 478.258 104.426C484.64 108.026 491.73 110.586 498.984 111.688C506.26 112.792 513.668 112.028 520.77 110.225C537.267 106.031 551.495 96.11 565.31 86.5828C579.386 76.8798 593.691 67.6518 610.605 63.9043C624.368 60.8541 638.513 60.2838 652.407 58.057C665.6 55.9421 679.021 52.1624 689.161 43.0191C700.252 33.0159 705.19 18.3608 704.648 3.63854C704.061 -12.3814 697.094 -27.0871 686.135 -38.6199C659.985 -66.1368 620.353 -71.2531 584.693 -76.0131C564.919 -78.6544 545.33 -82.1031 526.002 -87.1192C506.449 -92.1918 487.259 -98.6416 468.594 -106.379C459.456 -110.167 450.512 -114.351 441.587 -118.608C432.86 -122.769 424.048 -126.809 414.753 -129.557C399.234 -134.14 382.091 -134.208 367.946 -125.466C361.87 -121.715 356.916 -116.327 354.043 -109.766C353.185 -107.797 356.22 -106.409 357.087 -108.381L357.075 -108.371Z" fill="#2A2A2A"/>
<path d="M650.595 504.393C648.243 532.095 628.14 555.849 604.871 571.065C579.862 587.429 549.209 594.99 519.458 592.133C500.849 590.349 482.398 584.459 467.245 573.512C446.884 558.794 433.484 535.38 429.177 510.636C424.87 485.892 429.297 460 439.796 437.179C448.151 419.005 460.87 402.111 478.577 392.81C493.68 384.871 511.393 382.872 528.368 384.55C609.084 392.539 655.88 442.255 650.595 504.393Z" fill="#C4DEE1"/>
<path d="M646.837 501.795C647.247 524.988 635.007 546.321 619.129 562.439C602.229 579.597 580.506 591.698 557.155 597.474C533.804 603.25 506.392 602.954 483.332 593.111C462.352 584.156 445.9 567.086 436.17 546.598C425.217 523.538 423.59 496.895 429.013 472.145C433.925 449.708 444.425 426.509 463.216 412.365C473.091 404.93 484.833 400.504 496.946 398.41C508.53 396.405 520.467 396.638 532.146 397.578C551.656 399.148 571.154 403.713 588.741 412.453C603.9 419.989 617.609 430.665 627.718 444.329C637.492 457.534 643.659 473.084 645.885 489.347C646.446 493.471 646.743 497.627 646.837 501.789C646.881 503.718 649.883 503.725 649.839 501.789C649.65 493.03 648.483 484.271 646.207 475.802C643.93 467.333 640.802 459.829 636.647 452.527C632.472 445.2 627.333 438.408 621.456 432.361C615.579 426.314 608.529 420.645 601.176 415.997C593.313 411.028 584.863 407.005 576.129 403.82C566.626 400.358 556.77 397.912 546.788 396.323C535.721 394.563 524.478 393.781 513.278 393.939C500.528 394.122 487.727 396.379 475.998 401.487C464.956 406.299 455.416 413.84 447.912 423.236C440.565 432.437 435.117 442.986 431.125 454.028C426.579 466.589 423.855 479.851 423.167 493.2C422.48 506.55 423.893 520.095 427.727 532.915C431.012 543.893 436.088 554.374 442.741 563.706C449.394 573.039 457.484 581.148 466.918 587.561C477.417 594.7 489.474 599.416 501.89 601.939C514.483 604.493 527.492 604.928 540.255 603.509C552.671 602.128 564.867 599.057 576.438 594.347C588.073 589.611 599.007 583.318 608.901 575.568C618.234 568.259 626.608 559.67 633.488 550.004C640.222 540.538 645.507 529.863 648.086 518.499C649.328 513.026 649.94 507.401 649.839 501.789C649.807 499.859 646.806 499.853 646.837 501.789V501.795Z" fill="#2A2A2A"/>
</g>
</svg>
