<svg width="18" height="20" viewBox="0 0 18 20" fill="none" xmlns="http://www.w3.org/2000/svg">
<path fill-rule="evenodd" clip-rule="evenodd" d="M2.3029 5.644C2.49589 5.63049 2.68607 5.6983 2.83166 5.83253C2.97724 5.96676 3.06631 6.15643 3.07929 6.35985L3.52684 13.4363C3.6144 14.8178 3.67667 15.7798 3.81288 16.5028C3.94617 17.2053 4.13102 17.5766 4.39663 17.8391C4.66321 18.1017 5.02708 18.2719 5.70034 18.3642C6.39501 18.4596 7.30955 18.4616 8.62299 18.4616H9.37603C10.6895 18.4616 11.604 18.4596 12.2987 18.3642C12.9719 18.2719 13.3358 18.1017 13.6024 17.8391C13.868 17.5766 14.0529 17.2053 14.1862 16.5038C14.3224 15.7798 14.3846 14.8178 14.4722 13.4353L14.9197 6.35985C14.9261 6.25904 14.9513 6.16055 14.9938 6.06999C15.0363 5.97943 15.0953 5.89859 15.1674 5.83206C15.2396 5.76554 15.3234 5.71465 15.4142 5.6823C15.505 5.64994 15.601 5.63675 15.6966 5.64349C15.7922 5.65022 15.8857 5.67674 15.9716 5.72154C16.0575 5.76634 16.1342 5.82854 16.1973 5.90458C16.2604 5.98063 16.3087 6.06903 16.3394 6.16474C16.3701 6.26045 16.3826 6.3616 16.3762 6.46241L15.9248 13.5922C15.8421 14.907 15.7749 15.9705 15.6173 16.8043C15.4529 17.6709 15.1746 18.395 14.5987 18.9621C14.0227 19.5293 13.3193 19.7754 12.4874 19.8892C11.6877 20 10.6778 20 9.4276 20H8.57143C7.32123 20 6.31133 20 5.51159 19.8892C4.67975 19.7754 3.97535 19.5303 3.40036 18.9621C2.82439 18.395 2.54613 17.6699 2.38171 16.8043C2.2241 15.9695 2.15794 14.907 2.07427 13.5922L1.62283 6.46241C1.61649 6.3616 1.62905 6.26046 1.6598 6.16476C1.69055 6.06907 1.73888 5.9807 1.80203 5.9047C1.86518 5.8287 1.94192 5.76656 2.02786 5.72182C2.11381 5.67709 2.20726 5.65065 2.3029 5.644ZM7.39906 0.00128531H7.35431C7.14415 0.00128531 6.96027 0.00128543 6.78709 0.0300015C6.44977 0.0869651 6.12978 0.22636 5.85271 0.437033C5.57565 0.647707 5.34921 0.923811 5.1915 1.24326C5.10978 1.40735 5.05238 1.59093 4.98622 1.80117L4.97162 1.84629L4.87725 2.14371L4.84904 2.23191C4.76095 2.48966 4.59685 2.71089 4.38079 2.86315C4.16473 3.01542 3.90807 3.09072 3.64845 3.07801H0.72969C0.536164 3.07801 0.350565 3.15905 0.213721 3.3033C0.0768778 3.44755 0 3.64319 0 3.84719C0 4.05119 0.0768778 4.24684 0.213721 4.39109C0.350565 4.53533 0.536164 4.61637 0.72969 4.61637H17.2703C17.4638 4.61637 17.6494 4.53533 17.7863 4.39109C17.9231 4.24684 18 4.05119 18 3.84719C18 3.64319 17.9231 3.44755 17.7863 3.3033C17.6494 3.15905 17.4638 3.07801 17.2703 3.07801H14.263C14.0031 3.07144 13.7521 2.97727 13.5467 2.80931C13.3413 2.64135 13.1924 2.40844 13.1218 2.14474L13.0274 1.84629L13.0138 1.80117C12.9467 1.59093 12.8892 1.40735 12.8085 1.24326C12.6507 0.923686 12.4241 0.647503 12.1469 0.436822C11.8696 0.226141 11.5494 0.0868153 11.2119 0.0300015C11.0238 0.00588189 10.8342 -0.00371581 10.6447 0.00128531H7.39906ZM6.22183 2.75495C6.18291 2.86708 6.13848 2.97477 6.08854 3.07801H11.9105C11.8606 2.97341 11.8164 2.86589 11.7782 2.75598L11.7393 2.63906L11.6429 2.33139C11.6076 2.20275 11.5644 2.07668 11.5135 1.95398C11.461 1.84733 11.3855 1.75513 11.2931 1.68478C11.2007 1.61443 11.0939 1.56789 10.9814 1.54888C10.8546 1.53704 10.7272 1.53395 10.6 1.53965H7.39906C7.11886 1.53965 7.06048 1.5417 7.01768 1.5499C6.90521 1.56881 6.7985 1.6152 6.70609 1.68536C6.61367 1.75553 6.53813 1.84752 6.48549 1.95398C6.46603 1.995 6.44462 2.05141 6.35609 2.33242L6.2588 2.64009L6.22183 2.75495Z" fill="#2A2A2A"/>
</svg>
