<svg width="17" height="16" viewBox="0 0 17 16" fill="none" xmlns="http://www.w3.org/2000/svg">
<path d="M0.922953 1.30786H16.0768C16.3098 1.30786 16.4997 1.0164 16.4997 0.654856C16.4997 0.293309 16.3098 1.27554e-05 16.0768 1.27554e-05H0.922953C0.690022 1.27554e-05 0.500244 0.293309 0.500244 0.654856C0.500244 1.0164 0.690022 1.30786 0.922953 1.30786Z" fill="#2A2A2A"/>
<path d="M16.0771 4.89628H7.10964C6.87651 4.89628 6.68677 5.18842 6.68677 5.55134C6.68677 5.91244 6.87651 6.20459 7.10964 6.20459H16.0771C16.3101 6.20459 16.5 5.91244 16.5 5.55134C16.5 5.18842 16.3101 4.89628 16.0771 4.89628Z" fill="#2A2A2A"/>
<path d="M0.92278 11.1029H16.0766C16.3096 11.1029 16.4994 10.8102 16.4994 10.4498C16.4994 10.0875 16.3096 9.79484 16.0766 9.79484H0.92278C0.689825 9.79484 0.5 10.0875 0.5 10.4498C0.5 10.8102 0.689825 11.1029 0.92278 11.1029Z" fill="#2A2A2A"/>
<path d="M16.077 14.6912H7.10957C6.87657 14.6912 6.68677 14.9841 6.68677 15.3456C6.68677 15.7052 6.87657 16 7.10957 16H16.077C16.3101 16 16.4998 15.7052 16.4998 15.3456C16.4998 14.9841 16.3101 14.6912 16.077 14.6912Z" fill="#2A2A2A"/>
</svg>
