<svg width="26" height="26" viewBox="0 0 26 26" fill="none" xmlns="http://www.w3.org/2000/svg">
<path d="M26 1V6.33333C26 6.59855 25.8946 6.8529 25.7071 7.04044C25.5196 7.22798 25.2652 7.33333 25 7.33333C24.7348 7.33333 24.4804 7.22798 24.2929 7.04044C24.1054 6.8529 24 6.59855 24 6.33333V2H14V24H18.3333C18.5986 24 18.8529 24.1054 19.0404 24.2929C19.228 24.4804 19.3333 24.7348 19.3333 25C19.3333 25.2652 19.228 25.5196 19.0404 25.7071C18.8529 25.8946 18.5986 26 18.3333 26H7.66667C7.40145 26 7.1471 25.8946 6.95956 25.7071C6.77202 25.5196 6.66667 25.2652 6.66667 25C6.66667 24.7348 6.77202 24.4804 6.95956 24.2929C7.1471 24.1054 7.40145 24 7.66667 24H12V2H2V6.33333C2 6.59855 1.89464 6.8529 1.70711 7.04044C1.51957 7.22798 1.26522 7.33333 1 7.33333C0.734784 7.33333 0.480429 7.22798 0.292893 7.04044C0.105357 6.8529 0 6.59855 0 6.33333V1C0 0.734784 0.105357 0.480429 0.292893 0.292893C0.480429 0.105357 0.734784 0 1 0H25C25.2652 0 25.5196 0.105357 25.7071 0.292893C25.8946 0.480429 26 0.734784 26 1Z" fill="#2A2A2A"/>
</svg>
